<?xml version="1.0" encoding="utf-8"?>
<!-- Generator: Adobe Illustrator 26.4.1, SVG Export Plug-In . SVG Version: 6.00 Build 0)  -->
<svg version="1.1" id="icon-about_xA0_Image_00000140732468081440640010000013312114450950539690_"
	 xmlns="http://www.w3.org/2000/svg" xmlns:xlink="http://www.w3.org/1999/xlink" x="0px" y="0px" viewBox="0 0 512 512"
	 style="enable-background:new 0 0 512 512;" xml:space="preserve">
<g>
	<path d="M97.2,105.2c0.1-9.1,0.1-8.9,8.7-10.3c9.9-1.5,19.6-3.8,29.6-4.7c13.1-1.2,26.3-1.5,39.4-2c14.1-0.6,28.3-1.5,42.4-1.6
		c10.1-0.1,20.3,1,30.4,1.6c2.6,0.1,3.3,1.9,3.2,4.2c-0.3,4-0.8,8-0.8,12c0,13.5,0.2,27,0.4,40.5c0.1,14.3,0,28.7,0.5,43
		c0.6,18.1,1.8,36.3,2.7,54.4c0.7,12.6,1.3,25.3,2.2,37.9c0.9,12.6,2.4,25.2,3.3,37.8c1.1,17.1,1.7,34.2,2.7,51.3
		c1.3,21.9,2.9,43.9,4.3,65.8c0.7,12.1,1.2,24.3,1.7,36.4c0.1,1.8,0,3.7,0.3,5.5c0.8,4.9,0.2,5.8-4.8,5.9c-7.3,0.1-14.7,0-22,0.4
		c-19.1,1-38.2,2.3-57.3,3.3c-11.6,0.6-23.3,1-35,1.3c-8.2,0.2-16.3,0.2-24.5,0.3c-6,0.1-8-1.7-9.4-7.3c-5.3-21.8-6.2-44.1-8.1-66.2
		c-2.4-27.7-4.7-55.4-6.7-83.1c-1.4-18.3-2.2-36.6-3.3-54.9c-1.1-19.1-2.3-38.2-3.3-57.4c-0.6-11.5-1-23-1.7-34.4
		c-1.3-22.1-2.7-44.2-4.1-66.3c-0.1-1.7-0.6-3.3-0.8-4.9c-0.5-4.5,0.6-6.1,4.9-7.2C93.7,105.9,95.4,105.6,97.2,105.2z M163.5,351.5
		c-1.4,0.2-2.8,0.3-4.2,0.7c-5.9,1.8-11.2-1.6-11-7.7c0.1-3,1.6-6,2.5-9c0.4-1.1,1-2.2,1.6-3.5c-4.7,0.4-6.7,2.5-7.9,7.8
		c-1.3,6,0.6,10.7,5.6,13.7C154.9,356.4,159,355.8,163.5,351.5l-0.2-0.3L163.5,351.5z M244.7,93.1c-9.3-0.5-17.4-1.4-25.5-1.2
		c-20.1,0.5-40.3,1.4-60.4,2.3c-9.5,0.4-19,0.9-28.4,1.9c-7.9,0.9-15.7,2.6-23.6,3.8c-2.8,0.4-4.1,1.3-3.9,4.4
		c0.6,8.1,0.9,16.3,1.3,24.5c0.9,18.6,1.9,37.2,2.7,55.9c0.8,19.3,1.4,38.6,2.3,57.9c1.5,29.9,3.2,59.9,4.8,89.8
		c0.5,10.1,0.8,20.3,1.2,30.5c0.9,23.3,1.8,46.6,2.8,69.9c0.5,12,1.2,23.9,2.1,35.9c0.3,4.7,1.3,9.4,2,13.7c12.5,0,24.3,0,36.1,0
		c5.5,0,11-0.2,16.5-0.5c23.6-1.2,47.2-2.5,70.8-3.8c5.8-0.3,11.5-0.8,17.9-1.2c-0.6-11.6-1.1-22.7-1.6-33.8
		c-0.1-2.4-1.9-2.8-3.8-3.1c-10.5-1.6-19.7-6.1-27.8-12.8c-11.2-9.2-22.2-18.7-33.2-28c-1.3-1.1-2.7-2.3-4.7-3.9
		c0,3.9-0.2,6.8,0,9.7c2,22.2-0.1,44.3-1.2,66.4c-0.1,2-0.9,3.8-3.2,3.6c-2.4-0.3-2.4-2.3-2.3-4.3c0.8-14.6,1.5-29.3,2.1-43.9
		c0.1-1.5-0.5-3.3-1.3-4.6c-3.8-5.7-4-8-0.5-13.6c1.4-2.2,1-18.8-0.5-20.8c-0.3-0.4-0.7-0.7-1-1.1c-4.1-6.4-8.4-12.7-12.3-19.3
		c-2-3.4-3.3-7.2-5-10.8c-0.6,0.2-1,0.2-1.2,0.4c-5.5,4.6-11.5,4.9-17.6,1.4c-6-3.4-9.6-8.3-8.9-15.5c0.3-3.6-0.4-6.5-2.5-9.6
		c-4.8-7.2-6.1-15.8-8.1-24c-3.8-15.3-4.3-30.6-1.3-46.1c1.6-8.3,7.3-11,14.8-7c2.6,1.4,5,3.2,7.8,5.1c0.1-1.2,0.3-2,0.2-2.7
		c-0.8-6.8-1.6-13.6-2.5-20.3c-1.8-14-4.2-28-3.2-42.3c0.9-12.5,2.8-24.9,8.6-36.2c13.4-26.3,35.7-42.9,61.4-55.7
		c0.6-0.3,1.2-0.5,1.9-0.7c8.8-2.9,17.7-5.7,26.5-8.6C243.1,94.6,243.4,94.2,244.7,93.1z M211.6,144.4c-2.1,2.2-3.5,3.5-4.7,5
		c-3.2,4.3-6.2,8.7-9.2,13c-1.4,2-2.6,4.5-5.8,3.7c-3.2-0.8-3-3.7-3.4-6.1c-0.3-2-0.4-4.1-0.5-6.2c-0.4-0.1-0.7-0.2-1.1-0.4
		c-2.2,4.2-4.7,8.2-6.6,12.5c-3.8,8.3-3.7,8.3-10,2.3c-0.3,0.4-0.8,0.6-1,1.1c-4.7,11.4-7.2,23.3-6.1,35.6
		c1.5,17,5.3,33.6,13.2,48.9c1.8,3.6,1.9,6.7,0.3,10.4c-7,16.2-10.8,33.1-11.8,50.8c-0.8,14.4,2.9,27.7,7.7,40.9
		c2.9,7.8,6.4,15.3,11.2,21.7c1.9-0.6,3.5-1.1,5-1.7c0.4,1.5,1.2,3.1,1,4.6c-0.5,4,1.1,6.7,4.5,8.6c0.3-0.4,0.5-0.6,0.6-0.9
		c0.4-1.8,0.9-4,3.3-3.6c2.6,0.4,1.9,2.7,1.8,4.5c0,0.8,0,1.7-0.1,2.5c-0.5,3,0.8,4.7,3.5,5.7c0.2-0.4,0.4-0.6,0.5-0.9
		c0.7-2.2,0.2-6,3.7-5.3c3.5,0.7,1.8,4,1.5,6.3c-0.9,6.1,0,7.5,6.8,10.3c0.3-2.8,0.5-5.6,1.1-8.3c0.2-0.9,1.8-2.3,2.2-2.1
		c1,0.4,2.3,1.6,2.4,2.5c0.2,3,0.1,6-0.2,9c-0.5,5-0.6,5,4.7,7.6c0.3-4.1,0.6-8.1,0.9-12c0.1-1.9,0.4-4.1,2.8-3.7
		c0.9,0.2,2.1,2.4,2.1,3.8c0.1,4.2-0.3,8.3-0.4,12.5c-0.2,5.4,0.6,6.6,6.5,8.6c0-3.4-0.1-6.7,0-10c0.1-3.1,0.3-6.3,0.9-9.4
		c0.2-1.1,1.7-2.8,2.7-2.9c2.2-0.1,2.2,1.9,2.2,3.7c-0.1,6-0.2,12-0.4,17.9c-0.1,5.8,0.3,6.3,6.6,6.9c0-7.2-0.1-14.3,0.1-21.4
		c0.1-2.2-1.3-6,2.3-6.1c3.9-0.1,2.7,3.9,2.8,6.3c0.3,6.8,0.4,13.7,0.5,20.5c0.1,3.4,1.7,4.3,4.9,3.6c-1.3-16.5-2.6-32.6-3.9-48.8
		c-4.5-1-4.8-1.4-4.3-5.6c0.5-3.6,0.9-7.2,1.5-11c-1.7,0-3,0-4.8,0c-0.2,3.1-0.4,5.9-0.6,8.7c-0.1,1.9-0.6,4-3,3.7
		c-2.3-0.2-2.6-2.3-2.4-4.2c0.2-2.6,0.5-5.2,0.7-6.7c-1.9-2.1-3-3.4-4.2-4.7c1.7-0.9,3.3-2,5-2.5c1.4-0.4,3,0.1,4.5,0.1
		c2.3,0,4.5,0,6.8,0c0-4.9,0-8.9,0-12.5c-10.6-0.5-20.7-0.8-30.8-1.4c-4.6-0.3-9.3-0.9-13.8-1.8c-1-0.2-1.7-2.1-2.5-3.2
		c1.2-0.6,2.4-1.7,3.6-1.6c5.1,0.4,10.3,1,15.4,1.7c9.3,1.2,18.5,1.4,28.2-0.3c-0.5-6.3-1.2-12.4-1.4-18.5c-0.1-4-2.1-6.3-5.1-8.4
		c-4.7-3.4-9.2-7.1-13.7-10.8c-6.4-5.2-6.9-11.5-3.7-18.8c3-6.7,5.5-13.6,8.2-20.4c0.4-0.9,0.4-1.9,0.6-2.9
		c-6.3,6.5-13,12-20.8,15.9c-3.1,1.5-6.5,2.5-9.9,3.3c-1,0.2-2.4-1.1-3.6-1.7c0.9-1,1.6-2.4,2.7-2.9c3.6-1.7,7.5-2.8,11-4.7
		c10.5-5.8,17.9-14.7,24.2-24.7c2.6-4.1,3.7-8.3,3.5-13.2c-1.1-27.3-1.9-54.6-2.8-81.9c0-1-0.4-2-0.8-3.9
		c-3.9,4.4-7.1,8.2-10.6,11.7c-1.1,1.1-3,1.6-4.5,2.3c-0.8-1.6-1.9-3-2.2-4.7c-0.5-2.7-0.5-5.5-0.7-8.2c-0.4-0.1-0.9-0.3-1.3-0.4
		c-1.6,2.2-3.1,4.5-4.9,6.6c-1.1,1.2-3.2,3.2-4,2.8c-1.5-0.7-3-2.6-3.3-4.3C212.2,153,212.1,149.3,211.6,144.4z M153.4,283.8
		c-0.9-5.1-0.3-10-2.5-12.9c-3.3-4.3-8.3-7.5-12.9-10.7c-2.2-1.5-4.5-0.3-5.4,2.5c-0.3,1.1-0.6,2.2-0.8,3.4
		c-3.5,19.4-0.1,38.1,5.5,56.5c0.9,3,2.8,5.8,4.4,9.2c4.3-4.3,8.2-7.9,13.6-4.2c4.6,3.2,2.2,7.2-0.2,11.5c2.2,0,4,0.5,5.1-0.2
		c0.7-0.5,0.8-2.7,0.5-3.9c-0.9-4.4-2.2-8.6-3.2-12.8c-10.9-1.6-14-3.5-15.4-9.6c-2.1-9.1,2.1-15,11.3-18.7c-2.6-3.2-4.4-6.2-7-8.4
		c-2.9-2.6-5.9-1.6-7.8,1.8c-0.4,0.7-0.5,1.8-1,2.2c-1,0.8-2.3,1.4-3.4,2.1c-0.4-1.3-1.3-2.7-1.1-3.9c1.3-7.6,8.9-11,15.7-7.1
		C150,281.4,151.2,282.3,153.4,283.8z M249.4,262.1c-0.4-0.1-0.7-0.1-1.1-0.2c-4.1,10.4-8.4,20.8-12.3,31.4
		c-0.7,1.8-0.5,4.7,0.5,6.1c4.3,5.9,9.9,10.5,16.9,14C252.1,295.9,250.8,279,249.4,262.1z M155,300.1c-6.6,1.7-9.2,5.7-7.9,11.1
		c1,4,3.9,5.5,9.3,4.5C155.9,310.6,155.5,305.5,155,300.1z M160,345.2c-2.7,0-4.4,0-6.8,0C155.8,348.1,157.5,347.7,160,345.2z"/>
	<path d="M271.2,197.2c0-15.3-0.3-30.7,0.1-46c0.6-28.6,1.7-57.3,2.5-85.9c0.2-8.7,0.3-17.3,0.3-26c0.1-8,0.4-8.3,8.1-10.5
		c1.2-0.3,2.5-1.5,3-2.6c1.3-3.3,3.7-4.5,7-4.3c1.5,0.1,3,0.3,4.5,0.4c15.1,1,30.2,2.5,45.3,2.9c23.1,0.5,46.3,0.3,69.4,0.2
		c7.8,0,15.6-0.2,23.5-0.4c2.6-0.1,4.6,0.3,4.7,3.6c0.1,11.3,0.7,22.7,0.4,34c-0.9,25.3-2.3,50.6-3.4,75.9
		c-0.2,3.8-0.3,7.7-0.1,11.5c1.1,24.4-0.3,48.6-2.2,72.9c-1.2,15.3-1.5,30.6-2.2,45.9c-0.9,22-1.9,43.9-2.7,65.9
		c-0.9,26.1-1.6,52.3-2.4,78.4c-0.2,5.8-0.7,6.6-6.5,7c-3.5,0.3-7,0.6-10.5,0.7c-24.1,0.2-48.3,0.4-72.4,0.4
		c-10.5,0-21-0.6-31.5-1.2c-8.1-0.5-16.2-1.4-24.4-2.3c-4.3-0.5-5.1-1.4-5.3-5.7c-0.8-15.4-1.8-30.9-2.3-46.3
		c-0.6-16.5-0.9-33-1.2-49.5c-0.6-27.1-1.1-54.3-1.5-81.4c-0.2-12.5,0-25,0-37.5C271.3,197.2,271.2,197.2,271.2,197.2z M304.1,201.9
		c-0.2-0.1-0.4-0.2-0.6-0.3c0.1,0.2,0.2,0.4,0.3,0.6c2.8,7.5,4.6,15.5,8.6,22.2c3.8,6.3,2,10.3-1.9,14.9c-1.2,1.4-2.3,2.9-3.7,4.1
		c-7.4,5.8-14.9,11.5-23,17.7c0,6.3,0,13.5,0,21.4c14.7-2.8,29.1-4.7,40.4-15c2.8-2.6,4.9-5.9,7.3-8.8c1.1-1.4,2.5-2.8,4.1-1.2
		c0.7,0.7,0.3,2.6,0.1,4c-0.1,0.7-0.9,1.4-1.3,2.1c-7.6,11.3-18.6,17.3-31.5,20.3c-6.5,1.5-12.9,2.9-19.5,4.3c0,3.6,0,6.9,0,10.8
		c4.7-1.2,8.8-2.3,13-3.4c2-0.5,4.5-2.4,5.6,0.4c0.5,1.2-1.4,3.4-2.2,5.2c0,3.2,0.9,6.5,1.7,9.9c0.4,1.8,1,4-1.3,4.7
		c-2.7,0.8-3.2-1.6-3.8-3.5c-0.3-1-0.5-1.9-0.7-2.9c-0.6-2.4-1.3-4.8-1.9-7.1c-3.1-0.1-4.1,0.8-3.4,3.9c1.1,4.7,1.8,9.5,2.4,14.3
		c0.1,1.1-1.1,2.4-1.7,3.6c-1-0.9-2.7-1.5-3-2.6c-1-3.3-1.4-6.8-2.1-10.2c-0.4-1.9-1-3.8-1.5-5.8c-0.5,0.1-1,0.2-1.4,0.2
		c0.2,21.5-2.2,42.9-0.8,64.4c2.5,0,4.4,0,6.6,0c0.1-1.8,0.4-3.2,0.3-4.7c-0.4-6.1-0.8-12.3-1.3-18.4c-0.1-1.8-0.6-4.1,1.9-4.3
		c2.4-0.3,2.8,1.9,3.1,3.7c0.3,2.5,0.7,4.9,0.9,7.4c0.4,4.7,0.8,9.5,1.2,14.2c8.1-1.7,8.3-2.1,7.3-9.5c-0.7-4.9-1.4-9.9-1.8-14.8
		c-0.1-1.2,0.9-2.5,1.4-3.8c1.2,0.9,3.1,1.5,3.5,2.6c0.9,2.5,1.1,5.2,1.5,7.8c0.5,3.5,0.8,7.1,1.2,10.8c7.4-3.2,7.9-4.1,6.3-11
		c-0.7-3.2-1.7-6.4-2.6-9.6c-0.5-1.7-0.9-3.7,1.3-4c1.1-0.1,2.7,1.4,3.5,2.5c0.8,1.2,1,2.8,1.4,4.2c0.8,3,1.6,5.9,2.5,9
		c6.2-3.3,6.5-3.8,4.5-9.8c-0.5-1.6-1.2-3.1-1.8-4.6c-0.4-0.9-1-1.9-1-2.8c0.1-1.2,0.7-2.3,1.1-3.5c1.2,0.6,2.8,0.9,3.5,1.9
		c1.1,1.6,1.7,3.6,2.5,5.4c0.6,1.4,1.2,2.8,1.9,4.4c6.2-4.9,6.2-5,3.5-11.4c-0.3-0.8-0.9-1.5-0.9-2.3c0-1.5-0.3-3.7,0.5-4.3
		c2-1.4,3.3,0.6,4.2,2.2c0.9,1.7,1.6,3.6,2.5,5.4c5.5-4,5.5-4,3.1-9.3c-0.2-0.5-0.7-0.9-0.6-1.3c0.1-1.3,0.4-2.6,0.7-3.9
		c1.3,0.5,2.7,0.8,3.8,1.6c1,0.7,1.5,2,2.2,3c3.3-2.3,3.7-4.7,2.1-7.9c-0.7-1.3-0.8-4.1,0-4.8c2.3-1.9,3.3,0.9,4.6,2.2
		c0.2,0.2,0.6,0.2,0.9,0.4c2.6-2.2,3.7-4.5,1.1-7.6c-0.6-0.7-0.7-2.8-0.2-3.1c0.9-0.6,2.3-0.5,3.5-0.4c0.7,0,1.4,0.6,2.8,1.3
		c0.5-2.1,1.4-3.9,1.1-5.4c-1-4.9-1.2-4.8,4.1-5.9c0-2-0.1-4.2,0-6.3c0.1-1.2,0.2-2.5,0.7-3.5c0.8-1.7,2.3-3.2,2.7-5
		c1.3-5.2,2.6-10.4,3.3-15.6c0.6-5.1,1.5-10.5,0.5-15.3c-3.6-16.6-7.9-33-11.9-49.4c-0.4-1.5-0.4-3.4,0.2-4.8
		c6.5-14.9,10.7-30.4,12.2-46.7c1.1-12.5,1.8-25-0.7-37.3c-2-9.7-6.5-18.4-13.7-25.9c-1.7,1.2-2.9,2.2-4.3,3
		c-3.9,2.2-7.7,4.6-11.8,6.5c-3.9,1.8-5.7,0.1-5-4.1c0.5-3,0.9-6,1.5-10.1c-1.7,1.1-2.4,1.5-3,1.9c-4.6,3.1-9.1,6.2-13.7,9.2
		c-1.7,1.1-3.8,3.3-5.7,1.2c-1-1.1-0.4-3.6-0.3-5.4c0.1-1.2,0.6-2.4,0.9-3.7c-1.9,0.6-3.1,1.7-4.3,2.7c-4.5,3.7-9,7.4-13.7,10.9
		c-0.9,0.7-2.7,1-3.6,0.5c-0.8-0.5-1-2.2-1.2-3.4c-0.2-1.5,0-3,0-5.4c-2.9,2.7-4.9,5.3-7.5,6.9c-2.4,1.5-2.9,3.2-3,5.7
		c-0.5,13.3-1.3,26.6-1.6,39.9c-1.1,36.1-2,72.3-2.9,108.4c-0.1,2.1,0,4.2,0,7.1c9.9-5.3,18.1-11,23.9-19.7c0.8-1.2,1-3.6,0.4-5
		c-5.4-13.5-11-26.8-16.5-40.2c-0.9-2.3-3.6-5.1,0-6.9c3.3-1.6,4.6,1.8,5.9,3.9c5.6,8.7,13.4,15.3,21.3,21.6c3.6,2.9,8,4.7,12.2,6.7
		c1.9,0.9,4.3,1,3.4,3.8c-0.8,2.6-3.1,2-5.1,1.3c-0.8-0.3-1.6-0.6-2.3-1c-6.6-3.3-12.9-6.9-18.1-12.2
		C307.7,204.2,305.8,203.1,304.1,201.9z M282.1,412.1c2.6,0.4,4.7,0.8,6.8,1c20.5,1.1,40.9,2.9,61.4,3.1c22.5,0.3,45-0.7,67.4-1.1
		c2.7,0,3.9-1.3,4-3.9c0.1-4,0.2-8,0.4-12c0.8-24.3,1.5-48.6,2.3-72.9c0.8-21.8,1.7-43.6,2.6-65.4c0.4-10.2,0.6-20.3,1.4-30.4
		c2-24.8,2.8-49.5,2.8-74.4c0-21.6,0.9-43.3,2.3-64.9c1.3-19.7,1.5-39.3,0.4-58.9c0-0.6-0.4-1.2-0.6-1.8c-47.6,1.2-95,1.5-142.3-2.6
		c0.9,0.9,1.9,1.2,2.9,1.4c1.1,0.2,2.3,0.4,3.4,0.6c16.2,4,31,10.5,44.7,20.3c20.2,14.3,34.4,33.1,43,55.8
		c8.6,23,10.6,47.3,9.2,71.9c-0.3,4.8-0.8,9.5-1.4,15.2c2.6-1.9,4.5-3.4,6.5-4.7c6.4-3.9,12.3-1.8,14.6,5.3c0.8,2.7,1.5,5.5,1.7,8.3
		c1.3,19.1,0.1,37.9-5.1,56.4c-1.4,5-3.2,9.3-7.5,12.4c2.1,8.1,0.1,14.8-6.3,19.8c-6.9,5.4-14,3.1-21.3-0.2
		c-3.4,10.2-8.6,18.8-14.5,27.2c-0.8,1.1-1,2.8-1.1,4.2c-0.3,6.3-0.7,12.7-0.6,19c0.3,18,0.8,35.9,1.4,53.9c0.1,3.1,0.9,6.3,0.9,9.4
		c0,1.2-1.1,2.5-1.7,3.7c-1.1-1-2.3-1.8-3.3-2.9c-0.4-0.4-0.3-1.3-0.4-1.9c-0.4-3.6-1-7.3-1.1-10.9c-0.4-19.3-0.6-38.6-0.9-58
		c0-1.8-0.1-3.6-0.2-5.5c-3.5,2.5-6.1,5.2-8.5,7.9c-10.4,11.6-22.2,21.6-35.1,30.2c-8.5,5.7-17.8,8.9-28.4,9.3
		C282.1,388,282.1,399.8,282.1,412.1z M392.9,227.6c8.2,5.6,11,10.5,9,16.6c-2.9,8.6-9.4,10.9-17.7,8.7c-0.9,4.2-1.7,7.9-2.6,11.5
		c-1.2,5,1.8,7.9,7,6.7c-2.7-5.9-2.6-9.4,0.9-11.5c6-3.5,8.2,2.7,12.2,5.5c7-13.4,8.3-27.7,9.6-42.9c-3.6,1.8-4.8-0.3-6.1-2.4
		c-1.5-2.6-3.7-2.7-5.8-0.9C396.5,221.4,393.9,224,392.9,227.6z M388.5,223c2.4-2.6,4.5-5.3,7.1-7.6c4.9-4.3,8.9-3.9,13.4,0.9
		c0.5,0.5,1.1,0.9,2,1.7c0.4-8,0.4-15.2-1.7-22.3c-1.2-4-3.6-4.8-7.2-2.8C392.3,198.4,386.5,211.1,388.5,223z M386.5,235.7
		c-0.2,0.6-0.4,0.9-0.5,1.2c-0.3,2-0.5,3.9-0.7,5.9c-0.4,4.3,1.6,6.2,5.8,5.5c4.3-0.7,7.1-5.7,5.6-9.9
		C395,233.9,393,233.4,386.5,235.7z M393.3,264.4c-0.5,0.2-1,0.5-1.6,0.7c1.1,1.9,2.1,3.8,3.1,5.8c2.1,3.9,1.8,7.7-1.1,11.1
		c-2.8,3.4-6.1,4.2-10.7,2.8c-1.7-0.5-3.4-1.2-5.1-1.7c-0.1,0.4-0.3,0.9-0.4,1.3c3.4,3.4,7.8,5,12.4,3.6c4.4-1.3,7.9-4.7,8.5-9.5
		C399.3,272.9,397.2,268.2,393.3,264.4z M379.2,275.2c2.9,4.7,7.6,5.8,10.5,2.6C386.2,277,382.9,276.2,379.2,275.2z"/>
	<path d="M90.8,30.3c15.4-1.3,29.8,2.3,44.5,4.4c20.9,2.9,41.5,7.8,61.9,13.3c4.8,1.3,9.8,2.1,14.5,3.5c1.7,0.5,3.7,1.8,4.6,3.3
		c1.9,3.3,4.6,3.5,7.6,2.7c4.6-1.3,9.2-2.8,13.8-4.3c2.9-0.9,5.5-0.5,7.9,1.6c4.9,4.2,10,8.3,14.9,12.5c1.1,1,2.2,2.1,3,3.3
		c1.4,2.1,0.9,3.9-1.5,4.8c-7.2,2.7-14.4,5.3-21.5,8c-2.7,1-4.9,0-6.9-1.7c-4.1-3.3-8.3-6.7-12.4-10.1c-4.1-3.4-4.7-3.4-9.4-0.5
		c-1.2,0.7-2.9,1-4.2,0.8c-7.9-0.9-15.8-1.8-23.7-3.1c-14-2.2-27.9-4.3-41.8-7.1C118,57,94.5,49.5,72.3,38.7c-2-1-5-1.5-4.7-4.4
		c0.4-3.4,3.7-3.7,6.2-3.9C79.6,30.1,85.4,30.3,90.8,30.3z M251.1,74.3c-0.1-0.4-0.1-0.8-0.2-1.2c-1.9-0.4-3.8-0.8-5.7-1.2
		c-2.4-0.5-4.9-0.9-7.2-1.8c-0.9-0.4-1.3-1.9-1.9-3c1.1-0.6,2.1-1.6,3.2-1.7c1.2-0.1,2.6,0.5,3.9,0.8c2.6,0.4,5.2,0.8,7.8,1.2
		c-2.5-3.2-5-5.6-7.8-7.8c-0.9-0.7-2.5-1.5-3.5-1.2c-4.6,1.3-9.2,2.8-13.7,4.5c-2.3,0.9-3.1,2.6-0.9,4.6c3.6,3.2,7.3,6.4,11,9.4
		c0.9,0.8,2.5,1.5,3.6,1.3C243.4,77,247.2,75.6,251.1,74.3z"/>
	<path d="M414.9,446.6c-1.4,3.4-2.2,7.4-4.4,10.2c-4,5.1-10,3.8-12.5-2.2c-2.3-5.4-2.3-11-0.4-16.5c1.1-3.2,5.4-6.3,8.3-6.3
		c3.3,0,5.7,2.2,7.1,6.6c0.3,1.1,0.7,2.2,0.8,3.4c0.2,1.5,0.2,3,0.3,4.5C414.4,446.4,414.7,446.5,414.9,446.6z M402.5,443.3
		c2.1,0.7,4.1,1.3,6.4,2.1c-0.2-3-0.1-6-3.5-8.5C404.3,439.3,403.4,441.4,402.5,443.3c-0.1,2.4-0.7,4.7-0.3,6.9
		c0.2,1.4,1.8,3.7,2.9,3.7c2.2,0.1,3.2-1.8,2.9-4.3C402.8,450.3,403,446.5,402.5,443.3z"/>
	<path d="M336.9,477.7c0-2.8-0.3-5.4,0.1-8c0.2-1.2,1.6-2.1,2.5-3.2c0.8,0.9,2.1,1.8,2.3,2.8c0.9,6.8,1.7,13.5,2.2,20.3
		c0.4,5.4-1.5,7.7-6.9,8.4c-2.5,0.3-5.3,0-7.8-0.8c-3.8-1.2-6.1-5.2-5.9-9c0.3-4.8,3.8-9,8.4-10C333.3,478,335,477.9,336.9,477.7z
		 M334.9,493.1c2.1-0.1,4.3-0.3,4.1-3.8c-0.3-4-1.9-6.3-4.8-6.2c-2.8,0.1-5.3,2.6-5.4,5.4C328.8,491.5,330.9,493.2,334.9,493.1z"/>
	<path d="M315.4,450c-0.5,3.6-0.7,6.4-1.4,9.1c-1,3.6-3.7,5.6-6.8,5.6c-3.4,0-5.6-1.7-7-4.7c-2.7-5.8-2.9-11.9-1.6-18
		c0.8-3.7,3.9-6.2,7.4-6.4c3.7-0.2,6.1,1.8,7.3,5C314.4,443.8,314.8,447.3,315.4,450z M302.5,447.7c0.5,0,1,0,1.5-0.1
		c1.5,0.9,4,1.6,4.2,2.7c0.7,3.9-3,1.8-4.7,2.6c0.4,1.4,0.4,2.6,1,3.6c0.6,1,1.7,1.8,2.6,2.6c0.8-0.9,2.2-1.8,2.2-2.8
		c0.2-3.9,0.2-7.9-0.1-11.8c-0.1-1.3-1.6-2.5-2.4-3.7c-0.4,0-0.9,0.1-1.3,0.1C304.4,443.1,303.5,445.4,302.5,447.7z"/>
	<path d="M341,449.7c0.4-3.6,0.7-6.8,1.2-9.9c0.5-3.2,2.6-5,5.6-5.5c2.8-0.5,5,0.9,6.2,3.3c3.5,6.8,4.1,13.9,1.1,21.1
		c-1.3,3-3.8,4.6-7.2,4.2c-3.2-0.3-5.1-2.4-5.8-5.4C341.5,454.9,341.3,452.1,341,449.7z M349.6,440.3c-0.6,0-1.1,0-1.7,0
		c-0.4,1.9-0.8,3.8-1.3,6.1c1.9,0,3.1,0,4.9,0C350.8,444,350.2,442.2,349.6,440.3z M351.8,452c-2.4,0-3.6,0-5.6,0
		c0.7,2.3,1.3,4,1.8,5.8c0.5,0,1,0,1.5,0C350.2,456,350.9,454.2,351.8,452z"/>
	<path d="M356.8,487.9c1.8,2.9,4.1,2.8,6.5,3c1.2,0.1,2.3,1.3,3.4,2c-1.1,1-2.1,2.6-3.4,2.8c-5.5,1.1-10.2-1.8-12.7-7.3
		c-2.5-5.5-1.4-11.8,2.5-15.1c3.4-2.9,10.4-3,13.3,0.3c1.1,1.3,1.8,3.6,1.6,5.3c-0.4,3.3-2.7,5.6-5.8,6.9
		C360.6,486.5,358.9,487.1,356.8,487.9z M355.2,481.9c3.4,0.1,6.3-0.4,7.6-4.2C357.2,475.7,355.6,476.5,355.2,481.9z"/>
	<path d="M288.7,435.5c0.6,5.3,0.6,9.8-0.5,14.7c-1,4.5,0.9,9.8,1.8,14.6c0.2,0.8,1.7,1.3,2.4,2.1c0.7,0.8,1.6,2,1.4,2.7
		c-0.2,0.9-1.5,1.8-2.4,2.1c-2.8,0.8-5.7-1.1-6.3-4.1c-0.5-2.6-0.7-5.3-0.9-7.9c-0.1-3.1-0.4-5.9-3.2-8c-1.6-1.2-1.6-3.3,0.2-4.1
		c3.5-1.6,3-4.4,2.7-7.2c-0.2-1.8-0.6-3.7-0.5-5.4c0.3-3.9,3.2-6,7-5c1.2,0.3,2.1,1.7,3.2,2.6c-0.9,0.8-1.8,1.7-2.7,2.4
		C290.6,435.2,289.8,435.2,288.7,435.5z"/>
	<path d="M424.9,434.1c-0.2,3-0.4,5.6,2.9,6.9c1.8,0.7,2.2,2.9,0.6,4.1c-2.7,2.1-1.9,4.7-1.7,7.3c0.2,1.8,0.6,3.8,0.1,5.4
		c-0.6,1.7-1.9,3.4-3.4,4.5c-0.8,0.6-2.7-0.3-4-0.5c0.2-1.3,0.4-2.6,0.8-3.8c0.2-0.7,1.4-1.3,1.4-1.9c-0.1-4.4-0.3-8.9-0.7-13.3
		c-0.3-2.7-1.1-5.4-1.4-8.2c-0.2-2.1,0.2-4-2.5-5.2c-2.3-1-1.7-3.4,0.6-4.3c2.6-1,5.3,0.2,6.5,3c0.3,0.6,0.5,1.3,0.6,1.9
		C424.7,431.4,424.8,432.9,424.9,434.1z"/>
	<path d="M303.6,486.1c3.9,2.4,7.1,4.3,10.3,6.2c1.7,1,3.6,1.8,5.2,3c0.7,0.6,1.2,2.2,0.9,2.9c-0.3,0.7-2,1.5-2.7,1.2
		c-6.8-2.7-13.4-6-18.6-11.4c-1.8-1.9-1.3-4,0.7-5.6c4.2-3.3,8.4-6.6,12.6-9.9c0.5-0.4,1.1-1,1.7-1c1.4,0,2.7,0.3,4.1,0.4
		c-0.4,1.3-0.5,3-1.4,3.7C312.5,479.1,308.4,482.2,303.6,486.1z"/>
	<path d="M430,482.8c-4-3.2-7.2-5.7-10.4-8.3c-0.9-0.7-2-1.4-2.5-2.3c-0.4-0.7-0.7-2.2-0.3-2.6c0.7-0.7,2-1.2,2.9-0.9
		c1.2,0.3,2.4,1.2,3.4,2c3.4,2.6,6.8,5.3,10.2,8c3.9,3.2,3.9,5.1-0.3,8.2c-4.1,3-8.4,5.9-12.9,8.5c-0.9,0.6-2.6-0.2-4-0.3
		c0.3-1.3,0.1-3,0.9-3.9c1-1.2,2.7-1.9,4.1-2.8C423.7,486.7,426.4,485,430,482.8z"/>
	<path d="M410.8,460.5c1.8,2.2,2.8,3,3,3.9c0.2,0.8-0.3,1.9-0.7,2.8c-4.5,9.4-9.1,18.8-13.7,28.2c-0.4,0.9-0.8,2-1.6,2.5
		c-1.1,0.7-2.4,1-3.7,1.5c-0.3-1.3-1.2-2.9-0.7-3.9c4.9-10.3,10-20.5,15.1-30.8C409.2,463.5,409.9,462.3,410.8,460.5z"/>
	<path d="M382.6,484.4c0.8-2.1,1.6-4.2,2.4-6.3c0.5-1.2,0.7-2.6,1.3-3.8c0.9-1.9,1.8-4.6,4.5-3.3c2.5,1.1,1.1,3.5,0.5,5.3
		c-1.5,4.4-3.2,8.8-5,13c-1.9,4.2-5,4.8-7.3,0.8c-2.6-4.4-4.3-9.3-6.1-14.1c-0.3-0.8,0.9-2.1,1.4-3.2c1.1,0.6,2.7,0.9,3.1,1.8
		c1.6,3.2,2.7,6.5,4.1,9.8C381.8,484.4,382.2,484.4,382.6,484.4z"/>
	<path d="M325.6,444.9c-1.2-0.1-2,0-2.7-0.2c-2.9-0.8-3.4-2.5-1.3-4.5c1.3-1.2,2.7-2.4,4.1-3.5c2.4-1.8,4.6-1,4.9,2.1
		c0.5,6.8,0.8,13.5,1,20.3c0,1.1-1.3,2.3-2.1,3.5c-1.1-1.1-2.7-2-3-3.2c-0.5-2.2-0.2-4.6-0.4-6.9C326,450,325.8,447.6,325.6,444.9z"
		/>
	<path d="M371.8,454.5c0,1.5,0.3,3-0.1,4.4c-0.2,0.9-1.5,2.5-2,2.3c-1-0.3-2.5-1.3-2.7-2.2c-0.5-3.4-0.6-6.9-0.8-10.4
		c-0.2-2.6,0.4-5.4-3-6.6c-0.5-0.2-0.9-2.4-0.4-2.9c1.5-1.6,3.3-3,5.2-4c0.2-0.1,2.4,1.9,2.5,3c0.7,5.1,0.9,10.2,1.3,15.3
		C371.8,453.9,371.8,454.2,371.8,454.5C371.8,454.5,371.8,454.5,371.8,454.5z"/>
	<path d="M381.3,443.9c-1-1.4-3.1-3.7-2.8-4.2c1.5-2.1,3.6-3.7,5.7-5.3c0.2-0.1,2.6,1.6,2.6,2.6c0.3,6.7,0.4,13.3,0.3,20
		c0,1-1.4,1.9-2.1,2.9c-0.9-1-2.6-1.9-2.7-2.9c-0.3-4.3-0.1-8.6-0.1-13C381.9,444,381.6,443.9,381.3,443.9z"/>
	<path d="M213.8,237.6c-2-0.2-4.2-0.1-6.1-0.7c-1.3-0.4-2.3-1.8-3.4-2.8c1.1-0.7,2.3-2.1,3.4-2c6.5,0.3,12.9,0.9,19.4,1.4
		c0.7,0.1,1.4,0.2,1.9,0.6c1,0.8,2.6,1.9,2.5,2.6c-0.2,1.2-1.4,2.7-2.6,3.1c-4.5,1.6-9.3,2.6-13.8,4.2c-6.6,2.3-13.1,4.8-19.6,7.2
		c-0.6,0.2-1.2,0.9-1.8,0.8c-1.1-0.1-2.6-0.2-3-0.8c-0.4-0.6-0.1-2.4,0.5-3c1.5-1.3,3.2-2.4,5-3.1c5.8-2.3,11.7-4.5,17.6-6.7
		C213.8,238.1,213.8,237.8,213.8,237.6z"/>
	<path d="M214,256.2c0.2-5.4,1.6-7.9,4.9-8.2c3.2-0.4,5.2,1.7,6.1,7.1c0.4,2.4,0.5,5.1-0.3,7.3c-0.6,1.7-2.6,3.6-4.3,4.1
		c-2.5,0.6-4.3-1.5-5-3.9C214.7,260.5,214.4,258.3,214,256.2z"/>
	<path d="M236.8,332.4c0.3-3.7,0.3-6.5,0.9-9.2c0.3-1.1,1.8-1.9,2.8-2.9c0.7,1.1,2.1,2.3,2.1,3.4c-0.1,4.8-0.4,9.6-0.9,14.3
		c-0.1,1-1.7,1.9-2.6,2.8c-0.7-0.9-2-1.8-2.1-2.9C236.6,335.9,236.8,333.7,236.8,332.4z"/>
	<path d="M251.9,331.3c-0.1,2-0.1,4.9-0.6,7.7c-0.2,1-1.6,1.8-2.4,2.7c-0.9-0.9-2.5-1.8-2.5-2.6c0.1-5.5,0.5-10.9,1-16.4
		c0.1-0.6,1.5-1.8,2.1-1.6c0.9,0.2,2.2,1.3,2.3,2.1C252.1,325.5,251.9,328,251.9,331.3z"/>
	<path d="M216,335c0.6-3.8,0.7-6.5,1.5-8.9c0.3-1,2-1.6,3.1-2.5c0.6,1.2,1.5,2.4,1.6,3.6c0.1,2.3-0.3,4.6-0.5,6.9
		c-0.1,2.2-0.1,4.9-2.9,4.6C217.6,338.5,216.6,335.9,216,335z"/>
	<path d="M227,330.8c0.1-1.5,0-3.6,0.6-5.4c0.4-1,2.1-1.6,3.1-2.4c0.6,1.1,1.7,2.1,1.7,3.2c0.1,3-0.1,6-0.7,8.9
		c-0.3,1.3-1.7,2.4-2.6,3.6c-0.8-1.3-1.7-2.5-2.2-3.9C226.7,333.7,227,332.4,227,330.8z"/>
	<path d="M213.2,329.1c-0.5,2.3-0.6,4.1-1.2,5.5c-0.5,1-1.7,1.6-2.7,2.4c-0.7-1.1-1.9-2.2-2-3.4c-0.2-1.6,0.2-3.4,0.9-4.8
		c0.5-1,1.8-1.6,2.7-2.4C211.7,327.3,212.6,328.3,213.2,329.1z"/>
	<path d="M326.2,168.3c2,0.4,4.1,0.7,6.1,1.3c4.9,1.5,9.8,3.1,14.7,4.7c1.8,0.6,3.6,1.7,2.7,4c-0.9,2.3-2.8,1.7-4.7,0.9
		c-10.8-4.7-22.1-6.9-34-6.3c-2.1,0.1-4.7,0.4-5.1-2.6c-0.4-3,1.8-4.5,4.5-5c7.8-1.6,15.6-3.2,23.4-4.7c1.4-0.3,3.1-0.2,4.4,0.3
		c1,0.4,1.7,1.8,2.5,2.7c-1,0.7-1.9,1.9-2.9,2.1c-3.7,0.6-7.5,0.9-11.3,1.2C326.3,167.4,326.3,167.8,326.2,168.3z"/>
	<path d="M328.3,192.5c-0.2,5.6-2.1,8.5-5.8,8.4c-3.7-0.1-5.6-2.8-5.8-8.3c-0.1-3.7,0.1-7.3,3.7-9.7c2.8-1.9,5.1-1.4,6.2,1.9
		C327.6,187.3,327.8,189.9,328.3,192.5z"/>
	<path d="M299.5,259.5c0.5-0.6,1.1-2.2,1.7-2.2c1.1,0,2.8,0.7,3.1,1.5c1.3,4.2,2.4,8.6,3.2,12.9c0.1,0.7-1.2,2.5-1.7,2.5
		c-1.1-0.1-2.7-0.9-3-1.8C301.5,268.4,300.6,264.2,299.5,259.5z"/>
	<path d="M290,266.5c0-1.7-0.2-3.4,0.1-4.9c0.2-0.9,1.2-1.9,2.1-2.2c0.6-0.2,2.1,0.8,2.2,1.4c0.6,4.7,1,9.5,1.2,14.3
		c0,0.6-1.4,1.8-2,1.7c-0.9-0.2-2.3-1.1-2.5-1.9c-0.7-2.7-0.9-5.5-1.3-8.3C289.9,266.5,289.9,266.5,290,266.5z"/>
	<path d="M311.5,252.7c1.5,1.3,2.7,1.9,3.1,2.8c1.4,3.2,2.7,6.4,3.6,9.7c0.3,0.9-0.7,2.2-1.1,3.3c-1.1-0.5-2.8-0.7-3.2-1.5
		c-1.5-3.3-2.9-6.7-3.8-10.1C309.8,255.9,310.9,254.5,311.5,252.7z"/>
	<path d="M321.3,248.7c1.4,0.9,2.3,1.2,2.6,1.9c1.4,2.4,2.8,4.9,3.8,7.5c0.3,0.7-0.5,2.5-1.2,2.8c-0.8,0.3-2.5-0.1-3-0.8
		c-1.5-2.3-2.9-4.8-3.8-7.5C319.5,251.6,320.7,250.2,321.3,248.7z"/>
	<path d="M332.7,252.9c-1.6-2-2.8-3.1-3.3-4.4c-0.2-0.5,1.1-1.6,1.7-2.5c1.2,0.9,2.6,1.6,3.4,2.8
		C334.8,249.5,333.6,250.9,332.7,252.9z"/>
</g>
</svg>
