<?xml version="1.0" encoding="utf-8"?>
<!-- Generator: Adobe Illustrator 26.4.1, SVG Export Plug-In . SVG Version: 6.00 Build 0)  -->
<svg version="1.1" id="icon-portfolio_xA0_Image_00000143575619599669613670000008497737647741774751_"
	 xmlns="http://www.w3.org/2000/svg" xmlns:xlink="http://www.w3.org/1999/xlink" x="0px" y="0px" viewBox="0 0 512 512"
	 style="enable-background:new 0 0 512 512;" xml:space="preserve">
<g>
	<path d="M437.8,219.3c-1.5,6.7-3,13.1-4.7,20.6c4.8,4.5,9.9,9.6,15.5,14.4c13.4,11.5,27.1,22.6,40.4,34.3c4.2,3.7,7.5,8.5,11,12.9
		c0.8,1,1.1,2.5,1.6,3.7c-37.7,23.3-64.3,56.7-90.7,90.3c0.1,0.6-3.7,0.9-5.1-0.3c-14.1-11.4-29.8-20.7-42.5-34
		c-8.1-8.5-17.8-15.6-26.7-23.3c-2-1.7-3.9-3.5-5.9-5.3c0.8-2.1,1.5-3.8,2.3-5.9c-9.9-3.4-19.8-6.8-29.7-10.1
		c-4.6-1.5-8.6-3.4-7-10.1c-8.3,0-16,0-24.1,0c-1.1-0.8-2.5-1.7-3.8-2.6c-11.3,2.6-22.6,5.2-34.8,8.1c-1-2.8-1.9-5.6-3.3-9.5
		c-12.7,8.7-25.2,17.3-37.7,25.8c-1.7-0.9-3-1.6-4.9-2.6c-7.1,8.3-14.2,16.7-21.2,24.8c-2.6-0.9-3.9-1.4-6.1-2.2
		c-3.6,9.1-7.1,18.1-11,27.9c-2.2-0.2-4.9,0-7.3-0.7c-29.2-8.5-58.4-17.2-87.7-25.8c-4.1-1.2-8.4-2-12.7-2.5c-6-0.7-7.5-2.6-6.3-8.6
		c0.3-1.6,0.7-3.2,1.2-5.3c-3.2-1.8-6.5-3.6-10.2-5.7c0.6-2.9,1-5.7,1.8-8.3c4.2-12.8,8.1-25.7,12.8-38.3
		c5.5-14.5,11.5-28.7,17.6-42.9c3-7,4.2-7.2,11.1-4.2c2.3,1,4.6,2,7.2,3.2c9.2-10.7,18.2-21.6,27.6-32.1c9.3-10.4,19-20.4,30.9-29.6
		c3.8,3.1,7.5,6.1,11.5,9.4c16.2-12.1,33.2-23.2,52.6-32.3c4.2,6.3,8,12,12.2,18.4c26.1-15.8,54.7-23.7,85.9-27.4
		c2.9,7.6,5.7,15,8.5,22.6c27.8-0.3,55.4,2.7,82.5,9.4c0.7,0.2,1.3,1,2.3,1.8c-1,6.5-2.1,13.1-3.2,20.2
		C405.4,203.1,421.5,210.5,437.8,219.3z M408.3,389.4c25.4-31.8,51.1-63.5,86.3-87.7c-5.3-5.6-10.9-10.6-16.6-15.5
		c-15.7-13.7-31.4-27.3-47.1-40.9c-1-0.9-2.1-1.6-3.1-2.4c-0.8,0.4-1.4,0.7-1.9,1c-33.1,23.1-60.1,52.6-85.7,83.3
		c-1,1.3-1.3,3.2-1.8,4.5C361.7,351.3,382,373.4,408.3,389.4z M227.3,297.6c-3.1-8.7-6.2-17.2-9.2-25.6
		c-7.9-22.6-13.4-46.1-24.5-67.5c-1.6-3.1-0.8-5.8,2.2-7.7c2.3-1.5,4.5-3.2,7-5c-2.2-3.9-4.2-7.3-6.4-11.3c3.4-2.6,6.5-5,9.9-7.6
		c-2.8-4.5-5.4-8.8-8.3-13.4c-29.6,14.5-54.8,34.2-78.2,56.9c27.6,33,52.7,67.3,73.5,104.6C204.8,313.1,215.8,305.5,227.3,297.6z
		 M349.4,193.1c-17.2,38.1-35.4,76.1-48.1,116.8c10.4,3.6,19.9,6.8,29.3,10c6.2,2.1,7.2,1.4,11.2-4c5.6-7.6,11.4-15.1,17.5-22.3
		c4.5-5.3,9.6-10.1,14.5-15.2c11.2-11.6,22.5-23.2,33.5-34.9c4.1-4.4,8.6-6.1,13.9-3.6c2.2-1,4-1.8,6.5-3c1.2-4.6,2.5-9.6,3.7-14.4
		C414.3,212.2,361,193,349.4,193.1z M268,298.4c-0.4-6-1-11-1-15.9c-0.1-25.6-0.1-51.3,0-76.9c0-7.7,0.4-15.3,0.6-23
		c0.2-6,1.1-6.9,7-7.3c2.3-0.1,4.6-0.3,6.6-0.4c1.1-3.3,2-6,3-9.1c5.4,0,10.3,0,16.1,0c-2.1-6-3.9-11.2-5.7-16.2
		c-33.2,3.7-63,14.6-89.5,31.5c3.2,9.5,6.8,18.2,9,27.3c7.5,30.3,14.6,60.8,21.9,91.2c0.4,1.8,1.3,3.6,1.9,5.3
		C248.2,302.7,257.9,300.6,268,298.4z M73.6,241.7c-3.1-1.4-5.6-2.5-8.2-3.7c-14.9,27.7-22.8,57.4-32.8,87.6
		c38.1,14.6,75.8,29,113.4,43.3c3.2-8,6.6-16.2,10.1-24.8c-4.3-3.3-8.3-6.7-12.5-9.6c-11.3-7.9-22.7-15.9-34.2-23.5
		c-15.9-10.5-27.8-25.3-41.7-38c-0.9-0.8-1.2-2.3-2.1-4c2.8-2.7,5.5-5.3,8.2-7.9c-2.2-3.4-4.5-6.8-6.5-9.9
		C69.7,248,71.4,245.2,73.6,241.7z M298.5,300.5c2.4-7.6,4.8-15.4,7.1-23.2c7.8-25.8,15.6-51.6,23.4-77.4c2-6.6,2.2-6.9,9.4-6.8
		c1.6,0,3.3,0,4.5,0c1.8-2.5,3.2-4.5,5-7.2c11.5,3.4,22.9,6.7,34.6,10.1c0.9-5.7,1.6-10.5,2.4-15.4c-31.8-9.2-64.1-8.4-96.7-9.6
		c-0.5,2.1-0.9,3.8-1.2,5.6c-2.2,13.5-4.4,26.9-6.6,40.4c-4,24.4-6.6,48.8-6.5,73.6c0,3.3,1.1,6.6,1.7,9.9
		C283.6,300.5,290.6,300.5,298.5,300.5z M74.1,251.1c10.4,17.9,79.9,87.7,91.5,92.1c6.5-7.7,13-15.4,19.7-23.4
		c-0.3-0.6-0.7-1.3-1-2.1c-4.2-10-12.3-16.9-19.3-24.7c-15.5-17.4-31.1-34.7-46.7-52.1c-1.8-2-3.8-3.8-5.6-5.7
		c-2.5-2.7-2.3-5.4,0.3-7.9c1.5-1.5,3.1-2.9,4.5-4.3c-1.8-2.8-3.4-5.2-5.2-7.9c10.3-9.2,20-17.9,30-26.9c-2.4-2.2-4.5-4-6.7-6
		C112,203,92.5,226.7,74.1,251.1z"/>
	<path d="M162.5,430.7c0-11.3,0-22.6,0-34c0-3,0.2-6,0.7-9c1-5.7,4.5-8.8,10.2-9.1c26.4-1.3,52.9-2.8,79.3-3.8
		c26-0.9,52-1.3,77.9-1.9c1.8,0,3.7,0,5.5,0.2c4,0.4,6.6,2.6,6.9,6.7c0.5,8,1,15.9,1.2,23.9c0.3,15.7,0.1,31.3,0.6,47
		c0.3,8.8,1.9,17.5,2.3,26.3c0.5,10.5-5.1,17.1-15.6,18c-23,2.1-46.1,3.9-69.2,5.7c-24.6,2-49.1,3.9-73.7,5.7
		c-6.5,0.5-13.3,1.6-18.4-3.8c-2.1-2.3-4.3-5.5-4.5-8.4C164.1,473.3,162.2,430.7,162.5,430.7z M195.9,383.7
		c1.2,36.6,0.5,73.4,3.9,110.9c46.5-3.3,92.2-6.4,138.2-9.7c1.9-4.3,0.9-99.3-1.3-105.2C327.3,377.8,205.8,381,195.9,383.7z
		 M193.2,495.1c-1-37.7-2-74.6-3.1-112.4c-6.7,0.9-13.5,1.7-20.8,2.6c-0.5,3.8-1.2,6.9-1.2,10c-0.1,14.3-0.3,28.7,0,43
		c0.4,16,1.1,31.9,2,47.9c0.2,3.6,1.9,7.1,2.9,10.4C180.6,496.1,186.9,495.6,193.2,495.1z"/>
	<path d="M420.4,113.8c-6.6-3.2-13.8-5.4-19.3-9.6C378,86.5,372.7,61,389.4,34.5c10.3-16.3,25.7-22.6,43.7-25.6
		c13.8-2.3,27.3-1.5,40.5,2.4c12.9,3.8,23.2,11.4,29,24.1c4.1,9,7.5,18,8.5,28c2,20.2-12.5,43.9-34.4,51.6
		c-10.1,3.6-20.4,4.5-32,3.8c-0.6,0.8-1.3,2.1-2.3,3.3c-5.9,6.9-5.8,9,0.8,15.4c8.4,8.1,10.3,16.5,5.4,27.1c-2.1,4.6-4.7,9.4-8.2,13
		c-5.9,5.9-12.7,10.9-19,16.2c-3.9-2.6-5-8.2-2.2-12.7c1.5-2.5,3.8-4.6,5.8-6.8c2.7-3.1,5.7-6.1,8.3-9.3c4.6-5.9,4-11.4-1.6-16.3
		c-2-1.8-4.2-3.3-6.4-4.8C411.6,134.9,410.2,126.7,420.4,113.8z M427,180.9c3.5-2.8,8-5.1,10.5-8.6c10.3-14.6,12.2-22.3-1.3-33.6
		c-0.1-0.1-0.2-0.2-0.3-0.4c-4.6-5.6-4.9-10.1-0.5-15.8c2.6-3.4,5.7-6.5,8.3-9.5c11,1.1,21.2,0.6,31.1-3.3
		c18.1-7.2,28.5-20.5,30.6-39.7c1.2-11.2-3-21.6-7.6-31.7c-5.4-11.8-14.9-18.5-26.9-22c-14.4-4.1-28.7-3.3-43.5-0.7
		c-24.7,4.4-38.7,24.1-41.8,44.5c-2.4,15.7,4.9,28.1,16.6,37.5c6,4.8,14.2,7,21.5,10.3c2.1,0.9,4.2,1.6,6.7,2.5
		c-1,1.7-1.5,2.9-2.3,3.9c-1.2,1.6-2.6,3-4,4.4c-6.3,6.2-5.8,13.4,1.4,18.6c2.8,2.1,5.9,3.8,8.6,6.1c9.7,7.9,10.6,16.6,2.7,26.4
		c-3.1,3.8-6.4,7.5-9.5,11.3c-0.2,0.1-0.4,0.2-0.3,0.2C426.7,181.3,426.8,181.1,427,180.9z"/>
	<path d="M435.2,466.2c-0.7,7.5-0.9,15-4.2,22.2c-4.8,10.5-14.5,16.1-25.9,14.1c-7.2-1.3-12.6-5.2-14.2-12.3
		c-1.8-8-3.5-16.4-3.3-24.5c0.3-11.6,2.1-23.2,3.8-34.7c2.4-16.1,11.1-22.6,27.4-21.2c11.7,1,18.5,8,19,19.7c0.1,2.3,0,4.7,0,7
		C438.1,436.4,436.2,456.3,435.2,466.2z M396.1,443c-1.9,10.2-3.1,19.2-2.5,28.7c0.5,7.7,4.3,11.5,10.5,14
		c9.6,3.9,17.5,1.8,21.3-5.5c5.1-9.9,5.3-20.7,6-32.4C419.4,446.2,407.9,444.6,396.1,443z M414.9,415.6c-13.3,0.4-17.1,4.6-18.3,22
		c5.1,0.4,10.1,0.8,15.6,1.3C413.1,431,414,423.4,414.9,415.6z M431.4,442.3c2.9-15.9-0.6-26.7-10.8-25.4
		c-0.9,7.5-1.9,15.1-2.9,22.9C422.8,440.8,427,441.5,431.4,442.3z"/>
	<path d="M102.4,370.9c1.1,1.6,2.5,3.1,3.4,4.9c6.5,13.2,8.5,27.4,9.4,42c1,16.4,2.9,32.8,4.2,49.2c0.6,7.6,0.9,15.3,1.5,22.9
		c0.1,2,0.5,3.9,0.9,5.9c1.3,6.2-1.5,10.4-7.8,11.4c-9.9,1.5-14.3-2.1-15-12.2c-1.7-28.1-2.8-56.2-5.4-84.2
		c-1.2-12.5,1.7-23.7,4.8-35.3c0.4-1.5,1.4-2.8,2.2-4.2C101.2,371.2,101.8,371.1,102.4,370.9z M107.6,403.9c-2.8,0-5.3,0-7.7,0
		c-1.9,11.1,3.8,89,7.2,95.3c2.4-0.7,5-1.4,7.2-2C116.7,489.5,109.8,413.9,107.6,403.9z M105.2,389c-1.8,0.1-3.2,0.2-4.8,0.4
		c-0.5,2.8-0.9,5.3-1.3,8.3c3,0,5.4,0,8.6,0C106.7,394.5,106,391.9,105.2,389z"/>
	<path d="M138.8,388.3c4.7,4.6,6.5,10.1,6.9,15.5c1.3,15.4,2.1,30.8,2.7,46.2c0.4,9.8,0.6,19.6,0.3,29.4c-0.2,7.1-1.4,14.2-2.4,21.2
		c-0.2,1.8-0.7,3.9-1.9,5c-1.9,1.8-4.6,4-6.8,3.8c-1.9-0.1-4.4-3-5.2-5.1c-1.2-3.2-1.5-6.8-1.5-10.3c-0.1-22.9-0.2-45.9-0.1-68.8
		c0-7.9,0.3-15.9,1.1-23.8C132.5,396.7,134,392.1,138.8,388.3z M137.3,497.3c0.5,0,1.1,0,1.6,0c5.3-21.5,3.9-43.3,3.9-65.5
		c-2.6,0.3-4.5,0.5-7.1,0.8C136.3,454.4,136.8,475.8,137.3,497.3z M135.8,426.7c1.7-0.1,4.9-0.3,7.2-0.5c-0.8-4-0.8-5.6-1.6-9.4
		c-1.7,1.1-3.7-0.6-4.1,0.9C136.8,419.2,135.8,422,135.8,426.7z"/>
	<path d="M365.2,387.9c5.6,0,7.3,1.5,7.8,7.3c1,13.1,1.8,26.2,3,39.3c1,11.4,2.7,22.8,3.5,34.2c0.6,9.2,0.9,18.5-2.7,27.3
		c-1.4,3.3-2.1,7.7-6.7,7.8c-4.6,0.1-5.4-4.2-7-7.5c-5.2-11.2-5.4-23.2-5.7-35.1c-0.5-18.6-0.4-37.3-0.6-55.9c0-3.2,0-6.3,0.1-9.5
		C357.1,389.8,359.1,387.9,365.2,387.9z M374,473.8c-2.4-27.4-4.7-53.8-7-80.7c-1.9,0.4-3,0.7-4.4,1c-0.2,2.8-0.5,5.3-0.4,7.7
		c0.2,8.2,0.8,16.3,0.9,24.4c0.2,13.2,0,26.3,0.1,39.5c0,2.7,0.6,5.5,0.9,8.7C367.6,474.2,370.5,474,374,473.8z M373.9,479.6
		c-3.2,0.3-5.5,0.5-8.5,0.8c1.8,3.7,3.2,6.8,5.1,10.8c0.9-2.4,1.3-3.6,1.7-4.9C372.8,484.3,373.3,482.3,373.9,479.6z"/>
	<path d="M170.9,439.2c0-6.5,3.6-10.6,9.3-10.5c4.8,0,8.1,3.6,8.1,8.8c0,5.1-4.3,9.3-9.6,9.4C174,447,170.9,444,170.9,439.2z
		 M181.4,434.4c-4.4,0.2-5.2,2.6-4.5,6.1C182.4,441,183.7,439.4,181.4,434.4z"/>
	<path d="M171.9,409.4c0-5.9,3.2-9.1,8.9-9.1c4.8,0,8.3,3.1,8.3,7.4c0.1,5.3-4.4,10.1-9.6,10.2C174.8,418,171.9,414.7,171.9,409.4z
		 M184,408.2c-0.3-0.6-0.6-1.1-0.9-1.7c-1.8,0.2-3.7,0.4-6.1,0.6c0.4,2.1,0.7,3.5,0.9,4.8c0.4,0.2,0.9,0.5,1.3,0.7
		C180.8,411.2,182.4,409.7,184,408.2z"/>
	<path d="M181.2,474.1c-5.4,0-9.1-3.5-9.1-8.4c0.1-5.5,3.7-8.5,10-8.5c4.3,0,7.3,3.8,7.2,9C189.3,471.2,186.3,474.1,181.2,474.1z
		 M183.9,467.7c-0.3-1.7-0.5-3-0.7-4.6c-2.1,0.5-3.6,0.9-5.1,1.3C178,468.7,180.1,468.9,183.9,467.7z"/>
	<path d="M444.4,49.3c2.8-3,5.5-6.4,8.8-9c3.4-2.7,7.5-3.9,11.6-1.4c3.9,2.3,5.1,6.3,4.2,10.4c-0.8,3.8-1.8,7.9-4,11.1
		c-5.1,7.6-10.8,14.7-16.4,21.9c-0.7,0.9-2,1.4-4.3,2.9c-0.6-1.2-1.1-2.3-1.7-3.3c-5.6-8.2-11.4-16.4-16.8-24.7
		c-1.4-2.1-2.4-4.9-2.2-7.3c0.4-6,6.9-9,13-6C439.6,45.2,442,47.6,444.4,49.3z"/>
</g>
</svg>
