<?xml version="1.0" encoding="utf-8"?>
<!-- Generator: Adobe Illustrator 26.4.1, SVG Export Plug-In . SVG Version: 6.00 Build 0)  -->
<svg version="1.1" id="icon-fonts_xA0_Image_00000108994070744483400340000008817850269064809625_"
	 xmlns="http://www.w3.org/2000/svg" xmlns:xlink="http://www.w3.org/1999/xlink" x="0px" y="0px" viewBox="0 0 512 512"
	 style="enable-background:new 0 0 512 512;" xml:space="preserve">
<g>
	<path d="M216.5,176.1c5.4-2.3,8.2-1.3,11.5,3.3c3.2,4.4,5.4,9.4,8.7,14.4c2.8,0,6.3,0,9.4,0c2.8,2.1,3.5,4.8,3.9,7.7
		c0.1,0.9,0.4,1.8,0.7,2.7c1.6,4.4,2.6,8.9,4.1,13.3c1,2.9,1,6.5-1.1,9.3c-3.1,4.2-2.8,8-0.1,12.4c3.5,5.6,6.2,11.8,9.5,17.6
		c5.5,9.7,10.5,19.7,15.8,29.5c3.9,7.2,7.4,14.7,12.2,21.5c0.7,1,1,2.2,1.8,4.1c0.5-4.1,0.8-7.4,1.3-10.8c0.2-1.7,0.9-3.4,0.9-5.1
		c0-2,0.5-3.7,1-5.6c0.5-1.7,0.3-3.4,0.9-5.1c1-3,0.6-6.4,1.3-9.5c0.7-3.1,0.3-6.3,1.9-9.2c0.3-0.5,0.1-1.3,0.1-2
		c0.1-1.9,0-3.7,0.9-5.6c0.8-1.6-0.7-3.9,1.1-5.5c-0.3-2.9,0.3-5.8,1-8.6c0.9-3.8,0.5-7.9,2-11.7c0.1-0.3,0.1-0.7,0-1
		c-0.7-5.6,1.3-11,1.1-16.6c-0.1-2,0.6-4.1,0.9-6.1c0.3-2-0.6-4.1,0.9-6.2c0.9-1.2-0.3-2.9-1.5-3.2c-2.1-0.5-3-2.1-4.1-3.4
		c-2.6-3.2-2.8-3.6-5.7-4.9c-1.3,1.3-2.6,2.7-4.1,4c-2.6,2.4-6.8,2.9-10.2,1.1c-2.5-1.3-3.5-2.5-4.5-3.5c-3.6-3.8-1.5-7.5,0.3-10.8
		c1.1-2.1,3.2-4.2,5.8-5c0.4-4.5,0.4-9.1,1.3-13.5c0.3-1.7,0.8-3.4,0.8-5.1c0-4.3,0.4-4.7-2.3-7.5c-2.8-3-2-6.2-1.3-9.2
		c0.5-2.3,1.8-4.7,4.1-6.3c2.8-1.9,5.5-2.9,8.9-1.2c2.4,1.2,5.1,1.9,5.9,5.1c1.7,0,3.5,0,5.3,0c1.2-3.2,4.4-4.7,6.3-7.5
		c-1.6-3-1.5-6.7-0.7-9.8c0.9-3.8,4.8-4.9,8.6-5.8c-0.4-3.1,1.8-5.7,2.7-8.7c1.7-6.2,5.1-11.7,8.9-16.7c2.7-3.6,4-7.2,3.6-11.6
		c-0.4-4.4,1.9-7.2,5.7-9c2.7-1.3,5.2-0.8,7.8-0.3c4.4-4.6,9.3-9.2,13.6-14.4c1.9-2.2,3.8-4.4,5.8-6.6c-1.5-1.1-1.4-2.9-0.8-4
		c0.6-1.1,0.6-2.1,0.9-3.1c0.5-1.8,2.2-3.4,3.4-3.2c1.8,0.3,2.5-2,4.5-0.8c1.6,1,3.6,1.3,4.8,2.9c2,2.9,1.5,7.7-1.1,10.5
		c-0.9,1-1.9,1.9-3.2,3.2c-1.5-0.1-3.3-0.3-5.6-0.6c-3.2,3.7-6.9,7.8-10.9,12.3c0.7-0.1,1.4,0,2-0.3c6.7-2.8,13.4-5.9,20.8-6.5
		c2.4-2.1,5.8,0.1,8.2-2c1.8,0.4,3-0.9,3.5-2.1c0.8-1.7,2.1-2.5,3.5-3.5c2.6-1.9,4.8-1.7,7.6-0.5c3.2,1.5,5.6,3.7,7.9,6.1
		c2.9,0,5.8-0.5,8.5,0.2c1.7,0.4,3.4,0.5,5.1,0.9c3,0.7,5.2-1.3,7.6-2.2c2.8-1,4.9-0.8,7.5,0.7c4.1,2.5,5.5,4.4,5.9,9
		c1.7,0.7,3.4,1.5,5.1,2.1c1.5,0.4,2.6,1.6,4.7,0.5c1.8-1,4.6-0.4,6.9-0.2c2.8,0.3,5,2.8,5.2,5.8c0.1,1.7,0.1,3.3,0,5
		c-0.1,3.3-2.5,6-6,7.1c-4.4,1.3-4.8,1.8-7,5.6c-1.9,3.4-3.9,6.8-6.1,9.9c-1.6,2.3-2.2,4.2-0.9,6.9c2.1,4.2,1.4,7.7-1.8,10.9
		c-3,3-6.9,3.5-11,1.7c-2.7-1.2-5.1-2.4-5.5-5.8c-0.2-2.1-1.9-3.2-3.8-3.8c-2.1-0.7-4.2-1.2-6.1-1.7c-7.2,8-9.4,7.6-17.2,3.2
		c-1.9,2.6-1,6.9-4.5,8.5c-1.8,0.9-3.8,1.3-6,2c2.3,2.1,2.6,5.2,1.8,7.8c-0.8,2.5-3,4.4-4.9,7c0.4,0.5,0.9,1.2,1.5,1.9
		c3.4-1.5,17.1-1.6,22.6-0.1c1.7-1.7,3.3-3.3,4.4-4.5c2.9-1,5.3,0.3,7.3-1.4c0.6-0.5,2.2,0,3.2,0.5c4.7,2,7.9,7,6.9,12
		c-0.7,3.3-1.9,6.8-6.1,7.5c-2.4,0.4-3.4,1.6-3.9,4.1c-0.7,3.6-1.9,7.2-3.2,10.6c-1,2.6-0.8,5.6-2.6,8c-0.3,0.5,0.3,1.8,0.8,2.6
		c1.7,2.7,3.4,5.3,3.2,8.7c-0.1,2.4-0.9,4.4-2.6,6c-1.5,1.4-2.5,3.1-5.2,3.2c-4.1,0-8,0.2-10.9-3.2c-1.2-1.4-2.6-2.6-3.8-3.9
		c-2.6-0.3-5.1,0.2-7.7-0.9c-1.5-0.6-3.6,0.6-5.5,1c-0.2,0-0.3,0.5-0.4,0.8c-1.8,4.4-4.1,6.2-8.7,7c-2.9,0.5-2.6,0.6-3.4,3
		c-1.2,3.7-1.3,7.7-2.8,11.3c-0.2,0.4-0.1,1-0.1,1.4c-0.1,2.1,0.1,4-0.9,6.1c-0.8,1.8,0.3,4.2-1.1,6c-0.2,0.2,0,0.7,0,1
		c-0.1,2.4,0.1,4.7-0.8,7.1c-0.8,2.1-0.6,4.7-0.9,7.1c-0.5,4-1.7,7.9-1.3,12.1c0.2,2.1-0.6,4.4-0.9,6.6c-0.2,2.1,0.5,4.2-1,6.1
		c-0.2,0.2,0,0.7,0,1c-0.3,4.4-0.2,8.8-1.1,13.1c-1.1,4.7-0.1,9.5-1,14.1c-0.8,3.9-0.7,7.7-0.9,11.5c5.6,2.9,8.2,7.7,7,12.7
		c-0.9,4.1-5.6,7.6-10.6,7.8c-1.9,4.7-2.2,9.8-4.2,14.6c-1.8,4.4-3.6,8.8-5.5,13.2c-0.2,0.6-0.3,1.3-0.7,1.7
		c-1.5,1.5-1.4,3.1,0.3,4.1c2.1,1.1,1.7,3.4,2.6,5c0.6,1,0.6,3-0.5,4.7c-1.3,1.9-1.5,4.3-4.2,5.2c-2.5,0.9-4.6,2.6-7.6,0.8
		c-1.3-0.8-3.1-0.5-4.4,1c-1.7,1.9-3.6,3.5-5.5,5.4c0.5,1.3,0.7,2.5,1.3,3.6c1.8,3.1,3.6,6.2,5.9,9c1.1,1.4,1.6,2.9,1,4
		c-2,4.4-2.2,9.4-4,13.9c-3.6,8.9-4.8,18.6-8.9,27.3c0.1,4-2.1,7.5-3.1,11.2c-0.4,1.7-0.8,3.3-1.1,5.1c-0.3,2.4-1.2,4.8-2.3,7
		c-0.5,1-1.9,1.8-3,2.1c-6.1,1.6-11.9,4.3-18,5.9c-7.1,1.8-14.2,3.8-21.3,5.4c-5.5,1.2-10.8,3.5-16.2,5.4c-4.7,1.6-9.2,3.6-14,4.9
		c-5.6,1.5-10.9,3.8-16.6,4.7c-2.7,0.4-5.2,1.8-7.8,2.9c-2.3,1-4.6,1.3-7,0.9c-0.9-1.1-1.6-2.4-2.6-3.3c-2.4-2.2-4-5-5.6-7.7
		c-2.9-4.7-5.8-9.3-8.8-13.8c-4.1-6.3-8.3-12.6-12.6-18.8c-2.9-4.3-6-8.5-9-12.8c-4.4-6.2-9.1-12.2-13.4-18.5
		c-4.7-6.8-8.9-14-13.9-20.7c-3.5-4.7-6.7-9.6-10.1-14.3c-4.4-6.1-8.6-12.4-12.9-18.6c-3.3-4.8-6.9-9.4-10.2-14.3
		c-3.2-4.9-6.1-10-9.7-14.4c-4.3-5.3-7.1-11.6-11.4-16.9c-1.9-2.3-2.9-5.5-4.4-8.1c-5.3-9.2-11-18.2-16.9-27c-2.7-4.1-5.6-8-8-12.2
		c-1-1.8-1.8-3.8-0.2-6.2c1.4-2.1,1.6-5,2.1-7.6c1.5-6.5,3.8-12.8,5.1-19.4c0.5-2.5,1.7-4.9,2.6-7.4c2-5.5,3.8-11.1,5.5-16.7
		c1.2-3.8,1.2-7.7,2.8-11.3c0.8-1.8,1.3-3.8,2.1-5.6c0.2-0.5,0.7-0.9,1.2-1.1c1.9-0.7,3.7-1.7,5.7-2c3.7-0.6,7.4-1.1,11.1-0.9
		c2.4,0.1,4.3-1.1,6.6-1.2c2.2-0.1,4.4-0.5,6.6-1c0.7-0.2,1.6-1.2,1.8-2c1.1-5,3.9-9.4,5.7-14.1c1.2-3.3,2.4-6.7,3.3-10.1
		c0.8-2.9,2.3-5.1,5.1-6.3c3.8-1.7,7.4-4.2,11.4-5.1c3-0.7,6.2-1.5,9-2.6c2.8-1.1,5.7-1.7,8.4-2.6c2.9-0.9,6.3-0.1,9.4-0.2
		c10-0.4,18.8,3.2,26.9,8.7c3.7,2.5,7.9,4.7,10.4,8.5C211.5,171.4,214.5,173.3,216.5,176.1z M356.1,326.4c-1.1-0.9-1.9-2-2.9-2.4
		c-2.8-1-2.5-3.6-3.5-5.7c-0.8-1.8-0.8-3.4-0.4-5.1c0.2-0.9,0.9-1.6,1.4-2.4c0.6-0.9,1-2,1.8-2.7c0.9-0.9,2-2,3.1-2
		c4.5-0.3,4.6-3.6,4.4-6.6c-0.5-6.6,1.4-13,1.1-19.6c0-0.3-0.1-0.8,0-1c1.5-1.9,0.8-4,1-6.1c0.2-2,0.8-4,1-6.1
		c0.4-4.7,0.7-9.4,1-14.1c0-0.3-0.1-0.8,0-1c1.5-1.5,1.2-3.4,0.9-5.1c-0.3-2.1,1.3-3.7,1.1-5.6c-0.2-2.4,0.5-4.7,0.9-7.1
		c0.4-2.3,0.4-4.7,0.9-7.1c1-4.3,1.1-8.8,2.1-13.1c1-4.4,1.3-9,3-13.3c0.5-1.2,0.4-2.9-1-4c-0.7-0.5-0.8-1.9-1.5-2.3
		c-1.9-1.2-1.5-3.4-2.3-5.1c-0.9-1.8,0.6-3.6,1.6-5.2c3-5,4.8-6.7,11.7-5.8c4.5,0.6,6.9,3.6,8.9,6.9c4.6,0,9,0,13.5,0
		c2.6-5.6,7.2-7.9,12.7-8c2.3-7.2,4.5-14.2,6.7-21.2c-1.3-1.2-2.5-2.1-3.5-3.3c-1.2-1.4-3.3-2.2-3-4.8c0.1-0.8-1.2-1.7-2.7-1.6
		c-1.6,0.1-3.5,0.4-4.9-0.3c-3.2-1.5-6.5-0.2-9.7-0.7c-1.9,1.7-6.3,0.2-5.9,4.7c0,0.2-0.4,0.5-0.7,0.7c-2.1,2.4-4.6,4.1-8,3.6
		c-1.6-0.2-3.4,0.2-4.8-0.5c-1.8-0.9-3.4-2.4-4.9-3.8c-2.3-2.2-2.5-5.5-1.4-8.6c0.9-2.4,2.5-4,4.1-5.7c-3-6.9,0-13.8,8.9-14.8
		c-0.6-1.1-1.4-2-1.9-3.1c-0.5-1.3-1.1-2.7-0.9-4c0.2-1.6,1.1-3.2,1.9-4.7c1.6-2.9,4.3-4,7.3-4.8c1.8,1.9,4.1,0.6,6.2,1.1
		c0.9,0.9,1.9,1.8,2.8,2.7c0.9-2.1,1.4-4.3,2.7-5.9c1.2-1.6,2.9-3,4.7-3.8c3-1.3,10.1,0.9,11.6,4c1.2,2.4,3.1,2.8,5,3.7
		c1.4,0.7,3,0.8,4.4,1.5c1.9,1,3.8,1.3,5.4-0.1c2.2-2,4.7-2.5,7.6-2.2c4.1-6.6,8.2-13.1,12.2-19.6c-2.7-3.2-3.4-7.1-2.9-11.1
		c-2.3-0.8-4.3-1.6-6.5-2.4c-2,2.7-4.8,3.3-8.1,3.1c-4.8-0.2-8.6-3.5-9.5-8.3c-0.4-2.2-0.9-2.7-3.1-2.7c-3.5,0-7,0-10.4,0
		c-0.8,0.8-1.6,1.4-2.2,2.2c-4.8,5.9-10,6-16,1.5c-1.4-1.1-2.5-2.6-3.7-4c-13.8,1.8-26.5,5.4-37.6,13.6c1.6,3.7,1.4,6.4-0.5,8.8
		c-1.4,1.7-3.1,3.5-5.4,3.9c-2.2,0.4-4.2,2.3-6.8,0.2c-1.4-1.2-3.9,0.3-5.3,2.5c-2.8,4.6-6.1,9.1-7.9,14.2c-1.2,3.5-4,6.6-3,11
		c5.2,3.2,5.5,8.4,4.5,14.2c-2.1,1.8-4.4,3.6-6.7,5.5c2.5,2,2.3,4.9,1.9,7.5c-0.5,3-3,5.2-5.4,6.6c-2.2,1.4-5.4,2.1-7.9,1.1
		c-3.1-1.2-5.7-3.5-7-6.7c-1.2,0-2.3,0-3,0c-1.4,2.4-2.2,5.2-4.1,6.5c-2,1.5-4.4,3.2-7.8,2.1c-1.2,8.3-1,16.3-2.5,24.4
		c4,1.1,6.4,4,7.7,7.7c1.8,0,3.2,0,4.8,0c0.9-5.7,5.4-6.4,9.9-6.9c1.2-0.1,2.4,0,3.7,0.7c3.5,2,5.6,4.5,5.6,8.7
		c0.1,4.7-0.7,8.6-5.6,10.7c-1,0.4-1.7,1.6-2.5,2.3c-0.1,3.2,0.4,6.3-1,9.2c0.5,5.6-1.4,11-1.1,16.6c0.2,3-1.4,6-0.9,9.1
		c-1.7,1.8-0.5,4.1-1.1,6.1c-0.5,2-1.2,4-1,6.1c0.1,0.7,0.3,1.6,0,1.9c-1.8,1.7-0.2,4-1,5.6c-1,1.9-0.8,3.7-0.9,5.6
		c0,0.7,0.1,1.4-0.1,2c-1.2,3.3-1.6,6.8-1.8,10.2c-0.2,2.9-1.7,5.6-1.1,8.6c-1.6,1.4-0.8,3.4-1,5.1c-0.3,1.7-1,3.4-0.9,5.1
		c0.1,1.9-0.8,3.4-1,5.1c-0.5,3.5-0.7,7.1-1.1,10.6c-0.1,0.7-0.6,1.4-0.8,2.2c-0.6,1.9,0,2.9,2,3.6c1.9,0.7,3.7,1.5,5.7,1.9
		c1.1,0.3,2-0.1,2.4,1.6c0.3,1,1.2,2.3,0.5,3c-1.2,1.4-0.5,2.8-0.8,4.2c-0.3,1.5,0.7,3.3-0.9,4.6c0.1,3.7-0.8,7.4,1.5,10.8
		c1.9,2.8,3.5,5.9,5,8.9c3.8,8,8,15.7,12.3,23.4c0.9,1.7,2,2.7,3.2,3.5c1.7-1.7,3.2-3.2,4.6-4.5c-0.6-1.5-1.3-2.9-1.6-4.3
		c-1.2-5.5,5.6-12.2,10.5-12.2c1.8,0,2.8-0.5,3.5-2.4c1.3-3.6,3.7-6.9,4.7-10.5c0.7-2.5,3-4.7,2.2-7.6c1.9-2.4,1.9-5.3,2.1-8.1
		C355.2,327.1,355.6,326.9,356.1,326.4z M217,486.3c0.3-0.2,0.7-0.3,1-0.5c-0.7-4.1,1.5-7.9,1-12c-0.1-1.1,0.7-2.4,0.9-3.6
		c0.2-1.3-0.1-2.7,0.3-3.9c0.9-3.2,1.8-6.4,1.8-9.8c0-0.7-0.3-1.6,0-2c1.7-2,0.6-4.4,1-6.6c0.3-2.2,0.9-4.4,1-6.6
		c0.2-3.5-0.1-7,0.1-10.5c0.1-2.5-0.6-4.6-2.2-6.6c-2.7-3.5-5-7.3-7.7-10.8c-4.7-6.1-8.8-12.6-13.2-19c-2.6-3.8-5.8-7.2-7.9-11.2
		c-3.4-6.4-7.6-12.2-11.7-18.1c-5.6-8-11.1-16-16.4-24.2c-3.9-6-8-11.9-11.6-18.2c-3-5.3-6.4-10.3-9.4-15.6c-2.9-5-6-9.9-9-14.7
		c-2.6-4.1-5.5-8-7.9-12.2c-3.8-6.8-7.9-13.4-12-20c-3.6-5.7-6.9-11.5-10.6-17.1c-5.5-8.6-11.3-17-16.2-26.4
		c-0.5,1.7-0.8,3.1-1.3,4.4c-1.2,3.7-2.1,7.5-3.7,11c-3.3,7.6-4.8,15.7-7.3,23.5c-1.1,3.5-1.9,7.2-2.7,10.8c-0.5,2-2.1,4.2-0.4,6.6
		c1.6,2.1,2.8,4.5,4.2,6.7c2.5,3.8,5.6,7.3,7.7,11.3c3.2,6,7.4,11.4,10.5,17.6c1.2,2.4,2.6,5,4.1,7.3c3.5,5.5,6.8,11.2,10.6,16.6
		c3.8,5.4,7.6,10.8,11.2,16.4c3.3,5,6.3,10.3,10.6,14.6c5.7,10,13.1,18.8,19.4,28.4c3,4.6,6.4,9,9.5,13.6c2.8,4,5.3,8.1,8.2,12.1
		c4.3,6.1,8.7,12,13,18.1c3.3,4.6,6.7,9.2,9.9,13.9c2.3,3.4,4.4,6.8,6.5,10.3c4.9,8,10.3,15.7,15.6,23.5
		C214.8,484.5,216,485.3,217,486.3z M169.8,210.4c2.7,5.5,6.5,10,9.2,15.1c0.5,1,1.4,1.8,2.8,1.5c1.9-0.4,3.7-1,5.6-0.9
		c2.6,0,5-0.9,7.4-1.5c4.5-1.2,5.7-0.6,7.1,3.6c1.6,4.7,3.2,9.3,5,13.9c1.8,4.6,4.1,9,5.9,13.5c2.6,6.7,5.3,13.5,8.4,20
		c3.9,8.1,7.9,16.1,12.3,23.9c4.5,7.8,10.2,14.6,15.8,21.4c3,3.6,6.7,6.8,10.6,9.5c1.8,1.2,3,3.4,5.4,3.7c2.6,2.9,6.4,3.9,9.6,5.9
		c5.5,3.5,11.7,5.5,18.4,5.1c1.7-0.1,3.3,0,5,0c0.8-0.8,1.6-1.6,2.2-2.3c0.4-5.5,0.8-10.9,1.3-16.2c0-0.6,0.5-1.1,0.7-1.7
		c0.7-2.3,0.3-2.9-2.2-3.8c-2.6-0.9-5.4-1.7-7.7-3.1c-3-1.7-5.7-4-8.5-6.1c-2.2-1.7-4.6-3.2-6.2-5.4c-2.1-2.8-4.4-5.2-6.8-7.6
		c-0.3-0.4-0.8-0.7-1-1.1c-4.6-7.4-9.5-14.6-13.3-22.5c-2.2-4.6-5-8.9-6.8-13.7c-1.9-5.2-4.3-10.2-6.2-15.4c-2.3-6.2-5.8-12-7-18.6
		c-2.3-3.1-1-5.4,1.5-7.5c2.1,0,4.3,0.2,6.5-0.1c1.3-0.1,2.6-0.9,4.2-1.5c-1.9-6.1-3.7-12.3-5.6-18.4c-3.1,0-6.2-0.7-8.7,0.2
		c-3.5,1.3-6.8,0.4-10.2,0.8c-1.8,0.2-2.5-0.8-2.9-2.6c-0.7-3-1.9-5.9-3.5-8.5c-5.4-8.5-10.9-16.8-19-23.1
		c-8.7-6.8-18.5-10.6-29.5-10.7c-3.9,0-7.8,0.9-11.6,2.1c-1.8,0.5-3.5,1.2-5.3,1.8c-5,1.7-10.3,2.9-15,5.5c3.5,4.8,7,9.5,10.7,14.5
		c1.3,0,3.4,0.6,4.5-0.1c2.2-1.5,4.6-0.6,6.9-1.7c2.1-1,4.9-0.1,7.4-0.2c4.3-0.3,8.2,0.6,11.8,3c6.4,4.3,12.3,8.8,10.7,17.8
		c-0.1,0.3-0.1,0.6-0.2,0.9c-1.5,1.5-3,3.1-4.6,4.6c-1.1,0.9-2.2,2-3.5,2.4C177.9,208.1,174,209.1,169.8,210.4z M281,406.3
		c-3.7-0.4-8-0.3-12-1.4c-6.8-1.9-13.5-4.5-19.6-8.2c-8.6-5.3-16.4-11.8-23.7-18.7c-2.5-2.3-4.3-5.3-6.8-7.6
		c-5.1-4.7-9.1-10.2-13.3-15.6c-1.8-2.3-3.7-4.6-4.9-7.4c-1.2-2.8-3.2-5.3-4.9-7.9c-1.6-2.4-2.6-5-4.1-7.3
		c-3.9-6-9.5-18.1-11.6-24.7c-1.6-4.9-2.8-10.1-5.7-14.6c-0.8,0.4-1.5,1.1-2.2,1.1c-4.3,0-8.3,1.7-12.4,2.8
		c-1.1,0.3-3.5-0.7-3.7-1.8c-0.5-2.5-2.2-4.1-3.5-6.1c-1.3-1.9-2.1-4.1-3.2-6.1c-2-3.5-4.3-6.9-6.2-10.4c-1.6-2.9-3.3-5.9-0.1-8.9
		c0.2-0.2,0-0.7,0.1-1c1.6-5,3.3-10,5.1-15.2c-1.3-0.7-2.6-2.1-4-2.2c-5.1-0.3-10.3-0.6-14.7,3c-2,1.6-3.8,1.3-5.4-0.6
		c-0.5-0.6-0.6-1.4-1.1-2c-2.1-2.9-3.4-6.3-5.4-9.3c-2.1-3.1-3.8-6.5-5.7-9.6c-1.5-2.3-1-4.3-0.7-6.4c0.5-2.9,1.8-5.6,2.6-8.4
		c1.1-3.8,2.2-7.6,3.3-11.5c-0.6-0.2-1-0.4-1.2-0.3c-3.7,2-8-0.1-11.7,2c-3.6-0.7-7,0.9-10.6,1c-1.6,0-2,1.1-2.6,2.3
		c-0.9,1.8,1.6,3.4,0.2,5.3c-0.2,0.3,1,1.8,1.6,2.7c0.7,1.2,1.6,2.3,2.2,3.6c1.1,2.2,1.8,4.6,3.1,6.7c4.8,7.5,9.6,15,14.6,22.4
		c4.5,6.8,8.8,13.7,13.1,20.6c4.8,7.8,9.6,15.7,14.3,23.5c3,5.1,6.7,9.9,9.5,15.1c2.8,5.1,6,9.8,8.9,14.8c3,5.1,5.8,10.3,9.2,15.2
		c5.5,7.7,10.4,15.8,16.1,23.4c5.9,7.9,10.8,16.5,16.2,24.7c3.5,5.4,7.1,10.7,10.8,16c4,5.7,8.5,11,12.2,16.9
		c1.6,2.5,3.7,4.7,5.5,6.9c1.3-0.5,2.1-0.9,3-1.1c2.2-0.6,4.5-1.3,6.7-1.8c4.9-1.1,9.8-2.2,14.7-3.2c4.1-0.8,8.2-1.9,12.3-2.8
		c3.1-0.6,6.1-1.8,9.1-2.1c3.8-0.3,7.5-1.5,11.1-2.4c5-1.2,10-2.3,14.9-3.8c3.4-1.1,6.9-1.7,10.3-2.8c5-1.5,10-3.4,15.3-4.2
		c2.1-0.4,4.1-1.6,6.2-2.5c-1-2.1-2-3.7-2.7-5.4c-2-5.1-5.9-9.2-8.2-14.1c-0.8-1.8-1.4-3.9-2.5-5.4c-5.2-6.9-8.4-14.8-12.3-22.4
		c-1.2,2.1-2.9,4.1-3.4,6.4c-0.9,4-3,7.4-4.2,11.3c-1.2,3.8-2.9,7.5-4.4,11.2c-2.6,6.4-5.2,12.9-7.7,19.3
		C285.6,400.3,284.6,403.9,281,406.3z M271.3,344.9c-5-3.5-9.6-6.8-14.3-9.8c-3.4-2.2-5.4-6.1-9.2-7.8c-0.7-0.3-1.2-1.1-1.8-1.7
		c-3-3.6-5.8-7.3-8.9-10.8c-5.5-6.2-9.1-13.5-13.1-20.6c-4.7-8.3-8-17.3-12.1-26c-0.7-1.4-1.5-2.7-2-4.2c-1.8-5.4-4.1-10.6-6.4-15.8
		c-1.3-2.9-2.4-6-3.7-9c-0.2-0.5-0.7-0.8-1.1-1.1c-0.3,0.3-0.7,0.6-0.8,1c-0.3,0.7-0.5,1.5-0.7,2.2c-2.4,7.8-5.3,15.5-7.6,23.3
		c-2.3,7.6-4.7,15.3-7.5,22.8c-1.7,4.5-1.6,4.8,0.1,9.5c0.2,0.6,0.5,1.1,0.7,1.7c1.3,5.1,2.7,10.2,5.1,14.9
		c4.4,8.5,8.8,17.1,13.7,25.3c4.3,7.2,9.1,13.9,14.1,20.6c3.2,4.3,7.4,7.9,10.9,12c3.1,3.6,6.9,6.5,10.5,9.6c2.3,2,4.6,4.1,7,6
		c1.8,1.4,4,2.3,6.2,3.6c1.6-3.6,3-7,4.4-10.4c1.7-4.1,3.4-8.2,5.2-12.3C263.4,359.9,267.5,352.6,271.3,344.9z M134.2,170
		c-1.1,3.2-1.9,6.4-3.3,9.3c-1.9,3.9-2.5,8.2-4.6,12.1c-1.6,2.9-2.3,6.4-3.3,9.6c-1.9,5.7-3.8,11.4-5.5,17.2c-0.8,2.7-1.2,5.5,0.2,8
		c1.8,3.1,3.7,6.1,5.4,9.3c0.7,1.4,2,2.6,3.3,4.3c6.1-18.5,13.4-35.9,19.7-53.8C142.2,180.7,138.4,175.5,134.2,170z M165.5,214.9
		c-1.6,3.2-2.1,6.4-3.4,9.4c-2,4.5-3.1,9.4-5.2,13.8c-2.1,4.5-3.1,9.4-4.7,14c-1.2,3.8-2.5,7.6-3.6,11.5c-1,3.7-0.8,6.7,1.4,9.9
		c2.7,4,5.1,8.2,7.7,12.3c0.4-0.9,1-2,1.3-3.1c2.2-7.9,5.5-15.4,7.4-23.4c1.2-4.9,3.4-9.5,5.2-14.3c1.2-3.3,2-6.9,3.6-10
		c1.4-2.5,0.9-4.7-0.3-6.6C171.9,223.9,168.7,219.6,165.5,214.9z M258.1,395.1c1.9-1,3.3-2.9,3.7-4.7c0.5-2.4,1.7-4.3,2.7-6.4
		c1.3-2.8,3.2-5.4,4.1-8.3c1.5-4.6,4.1-8.7,6.1-13c2.1-4.4,3.9-9,6-13.8c-1.2-0.6-2.7-1.4-4.6-2.4c-0.8,2.2-1.3,4.2-2.3,6
		c-2.7,5-5.1,10.2-7.5,15.4c-3.5,7.6-6.4,15.3-9.8,22.9C255.7,393,255.7,393,258.1,395.1z M264.7,397.5c2.9,1.6,3.5-0.4,3.9-1.7
		c2.2-6.6,6.1-12.4,8.4-19c0.5-1.3,1.5-2.4,1.9-3.7c2.1-7.1,5.8-13.6,8.1-20.6c0.2-0.8,0.7-1.5,1-2.2c-1.6,0.9-2.5,2.1-3.2,3.5
		c-1.3,2.6-2.7,5.2-3.8,7.9c-2,4.8-4.7,9.3-6.6,14.2c-2.2,6.1-5.1,11.9-8.3,17.5C265.5,394.6,265.2,396,264.7,397.5z M252.3,249.2
		c-0.3,3.3,1.5,6,2.8,8.6c6.5,13.1,12,26.7,21.6,38c0.2-0.7,0.1-1.3-0.2-1.8c-3-5.9-6.1-11.8-9.4-17.5c-2.2-3.7-3.5-7.9-5.8-11.6
		C258.1,259.8,255.2,254.6,252.3,249.2z M365.9,318.5c0.1-4.3,0.2-4.5-1.6-5.6c-1.7-1-3.7-1.3-5.6-1.9c-0.2-0.1-0.5,0.4-0.8,0.5
		c-2,0.9-3.2,3.1-2.9,5.1c0.3,2.1,2.4,4.2,4.5,4.3c1.3,0.1,2.6,0,3.9,0C364.3,320.2,365.1,319.4,365.9,318.5z M376.6,184
		c-3.5,3.5-3.5,4.2-0.3,8.8c8.3,0.4,8.7,0.1,8.6-6.4c-0.8-0.8-1.6-1.6-2.4-2.5C380.5,184,378.5,184,376.6,184z M408.6,188.6
		c2,1.5,3.6,3.1,5.6,4c2.7,1.4,5.6-0.6,5.8-3.6c0.1-1.3,0-2.6,0-3.7C411,181,411.8,183.3,408.6,188.6z M297,146.2
		c0-4.5-1.4-6.3-4.1-6.2c-3,0.1-5.9,2.9-5.9,5.5c0,1.8,2.6,4.6,4.4,4.4c1.6-0.2,3.3-0.8,4.7-1.7C296.8,147.8,296.9,146.4,297,146.2z
		 M346.3,85c2.6,0.1,4.6-1.5,4.7-3.7c0.1-2.8-1.5-5.1-3.6-5.3c-3.7-0.2-6.3,1.9-6.4,5C341,83.4,343,84.9,346.3,85z M313.3,195
		c2.3-1.7,3.6-3.4,2.2-5.9c-0.7-1.3-0.8-3.1-3-3.1c-3.5,0-5.4,2-6.5,5C308.2,195,308.2,195,313.3,195z M432,147.5c0-0.8,0-1.7,0-2.5
		c-0.2-3.1-3-4.9-5.8-3.6c-1.7,0.8-3.6,1.6-4.2,3.7c-0.6,2.1,1.5,2.7,2.5,4c0.3,0.4,0.6,0.8,0.9,1c1.5,0,2.8,0,4.2,0
		C430.2,149.3,430.9,148.6,432,147.5z M339.5,363c-0.5,0.9-0.9,1.5-1.2,2.2c-0.7,2-0.4,3.4,0.8,4.4c2.2,1.8,4.8,1.4,7.4,1.3
		c0.4,0,0.8-0.6,1-1c1.3-2.7,0.5-6.6-3.3-6.9C342.6,362.9,341,363,339.5,363z M324.5,131c2.4-2.4,2.8-3,2.5-4
		c-0.8-2.5-2.5-4.2-5.2-5.1c-0.4,0.3-0.9,1-1.4,1c-2.6,0.2-2.6,2.6-3.3,4.1c-0.8,1.7,1.2,2.5,2.1,3.6c0.1,0.1,0.2,0.2,0.3,0.4
		C321,131,322.5,131,324.5,131z M409.9,61.4c-1.2-1.2-2.2-2.2-3-3c-2.1-0.5-3.7-1-5.8-1.5c-0.8,1.7-1.7,3.5-2.6,5.4
		c2.6,0.6,3.6,3.2,6.3,2.8C407.3,64.8,408.8,63.6,409.9,61.4z M399,114.5c0.5-1.7-0.7-2.8-1.9-3.9c-1.5-1.4-2.6-0.4-3.8,0.4
		c-0.2,0.1-0.7,0-1,0c-1.7,0.3-2.4,1.3-2.3,3.1c0.1,2.4,2.1,3.9,5.5,3.9C398.3,118,398.9,117.4,399,114.5z M386.6,142.2
		c-2.6,0-5.1,0-7.4,0c-0.7,3.2,0.5,5,3.4,6c2.1,0.8,5.1,0.4,6.1-1.4c1.1-1.9-0.4-2.9-1.6-4.1C386.9,142.4,386.7,142.2,386.6,142.2z
		 M281.6,191c2.5,0.4,4.4,0.9,6.2,0.9c1.5,0,3.5-2.3,3.2-3.6c-0.2-1-0.5-2.3-1.2-2.9c-0.7-0.7-1.9-1-3-1c-1-0.1-2,0.2-2.9,0.7
		c-0.5,0.3-0.9,1.1-1.2,1.7C282.3,187.9,282.1,189.2,281.6,191z M312.1,141.5c-0.1,3-0.1,3.1,0.8,3.9c0.7,0.6,1.4,1.4,2.3,1.6
		c2.2,0.6,5.2-0.8,5.8-2.5c0.2-0.7,0.4-1.9,0-2.4c-0.9-1.2-2.2-2-3-2.8C316,140,314.3,140.7,312.1,141.5z M439,62
		c-2,0-4.9,2-4.9,3.4c0,1.5,3.3,4.4,5.2,4.4c1.8,0.1,3.7-2,3.7-3.9C443,63.8,441.1,62,439,62z M390.8,127c-1.8,0-3.3,0.1-4.8,0
		c-1.5-0.1-2.5,0.5-3.1,1.8c-0.3,0.6-0.6,1.3-0.6,1.4c1.3,1.4,2.4,2.6,3.6,3.8C390.4,133.7,391,132.8,390.8,127z M417.9,107.5
		c-0.7-1.1-1.4-2.3-2.1-3.5c-1,0-1.8,0-2.6,0c-4,0.1-4.1,0.1-4.2,4.1c0,0.5,0,1,0,1.7c1.8,0.5,3.6,1,5.2,1.5
		C415.6,109.9,416.8,108.7,417.9,107.5z M219.8,181.5c1.5,2.6,2.9,4.8,4.2,7.1c0.8,1.5,1.3,3.1,2,4.6c0.8,1.6,2,2.5,4.1,1.2
		c-2-4.3-4-8.6-6.7-12.5C222.6,180.7,221.4,180.6,219.8,181.5z M457.2,76.4c1.6,2.2,2.5,3.6,3.6,4.9c1.1,1.2,2.7,1,3.7-0.3
		c1.7-2.3,2.2-4.7-0.4-7.3C462.1,74.5,460,75.3,457.2,76.4z M437.9,116.1c2.2,0.3,4,0.8,5.9,0.8c1.6,0,3.3-2.2,3.2-3.6
		c-0.1-1.6-1.2-2.3-3.5-2.3c-0.3,0-0.7,0-1,0C439.6,111.1,438.5,112.1,437.9,116.1z"/>
	<path d="M76.6,145.1c-2.1-1.8-3.6-4-4.6-6.5c-0.2-0.4-1-0.8-0.9-1.1c0.9-4.2-2-7.7-2.1-11.7c-0.1-2.8-1.5-5.4-2.2-8.1
		c-0.6-2.4-1.1-4.9-1.5-7.3c-0.7-3.7-1.8-7.3-2.5-11c-0.8-4.4-1.1-4.7,3-6.5c2.7-1.2,5.5-2.4,8.3-2.7c3.4-0.3,6.4-1.5,9.7-2.1
		c3.1-0.6,6.1-1.5,9.2-1.8c4.3-0.5,8.4-1.6,12.6-2.4c4.1-0.8,8.3-1.9,12.3-2.6c4.4-0.7,8.5-2.9,13.1-2.3c1.9-1.4,4.2-0.4,6-1.1
		c1.9-0.8,3.9-0.4,5.6-0.9c3.9-1.3,8-1.6,11.9-2.6c2.2-0.6,4.6-1.4,7-1.2c1.9,0.1,3.4-0.7,5.1-1c1.7-0.4,3.3-0.1,5.2-0.8
		c2.1-0.8,4.7-1,7-1.1c4.2-0.2,8-1.7,12-2.6c2.2-0.5,4.6-0.6,6.9-1.5c2.5-0.9,5.6-0.2,8-1.3c2.4-1.1,4.9-0.7,7.3-1.7
		c2.9-1.1,6.3-0.9,9.5-1.2c2.4-0.2,4.7,0,7.1-0.9c2-0.7,4.3-0.4,6.6-0.9c4.7-1,9.6-1.1,13.4-1.4c2.9,0.6,2,3.3,4.3,3.5
		c0.5,0,1.1,2.1,1.3,3.3c0.5,2.3,0.1,5.1,1.2,7c1.3,2.2,0.8,4.6,1.5,6.9c1,3.1,1.5,6.4,2.2,9.6c0.7,3.2,0.1,6.6,0.2,10
		c0,2.5-1.4,4.5-3.5,4.9c-4.6,0.8-8.8,3.1-13.7,3.4c-5.5,0.3-11.1,1-16.6,1.9c-2,0.3-4.2,0.3-6.1,1c-1.9,0.7-3.8,0.5-5.6,0.9
		c-5.9,1.6-12,2.4-17.9,3.6c-6.1,1.2-12.1,3-18.2,4.5c-6.9,1.7-13.9,3-20.7,5.5c-2,0.7-4.3,1-6.5,1.2c-3.3,0.3-6.5,1.3-9.6,2.3
		c-2.2,0.7-4.6,0.9-6.7,1.8c-2,0.8-4.1,1.5-6.2,2c-7.4,1.8-14.9,3.1-22.1,5.8c-1.9,0.7-4,0.5-6,1c-3,0.7-6.1,1.5-9.1,2.2
		c-3,0.7-6,1.9-9.2,2.1C80.6,143.2,78.8,144.3,76.6,145.1z M155.8,80c-0.7,0-1.5-0.3-1.9,0c-1.1,0.8-2.3,0.9-3.6,1
		c-1.4,0.1-2.7,0.7-4.1,0.9c-3,0.4-6.2,0.2-9,1.2c-2.3,0.8-4.9,0-6.5,1.1c-2.1,1.5-4.7-0.4-6.3,1.8c-2.4-0.5-4.4,1.1-6.8,1.1
		c-2.9,0.1-5.7,1.3-8.1,1.9c0.6,2.4,1.2,4.4,1.6,6.5c0.3,1.7-0.3,3.4,0.9,5.1c0.8,1.2-0.4,2.9-2,3.2c-0.9,0.2-1.9,0-2.1,0
		c-3.4-4.6-2.7-9.3-2.8-14.2c-3.2,0.5-6.1,0.7-8.7,1.6c-2.7,0.9-5.6,0.5-8.3,2.1c2,1.2,2.3,3,2.1,5c-0.2,1.5-1.1,2.4-2.4,2.5
		c-1.4,0-2.5-0.9-2.6-2.3c-0.1-1.5,0-2.9,0-5c-6,1.6-12.2,1.4-16.7,5.4c3,11.3,4.4,22.3,8.3,33.1c1.6-0.4,3.4-1,5.3-1.1
		c2.6-0.1,4.8-1.3,7.3-1.7c3.7-0.5,7.2-2.1,11-2.5c3.5-0.4,7-1.7,10.6-2.2c3.2-0.5,6.2-2.2,9.4-2.6c5.5-0.5,10.7-2.9,16.2-3.1
		c2.7-1.8,6-1.5,8.9-2.6c3-1.2,6.3-1.7,9.5-2.3c3.1-0.6,6.1-1.3,9.2-1.8c2.2-0.3,4.3-1.2,6.5-1.3c2-0.1,4.5-0.1,5.9-1.2
		c2-1.5,4.7,0.4,6.3-1.8c2.2,0.5,4.1-0.6,6.1-1c2.1-0.5,4.3-1,6.3-1.7c1.9-0.7,4.1,0.1,6-1.2c1.3-0.9,3.3-0.8,5-1.1
		c3.9-0.8,7.8-1.2,11.5-2.4c1.5-0.5,3-0.1,4.2-0.6c1.3-0.6,2.6-1.1,4.1-0.9c3.4,0.2,6.7-0.8,10-1.2c4.4-0.6,8.8-1.1,13.2-1.7
		c2.1-0.3,4.1-0.1,5.9-1.9c-2.2-10-4.4-20-6.6-29.8c-2.1,0.2-4.1,0.5-6.1,0.7c-1,0.1-2.1-0.3-3,0.1c-3.1,1.4-6.5,1.3-9.7,1.9
		c-4.1,0.7-8.6,0.1-12.5,1.3c-2.7,0.8-6.2-0.4-8.4,2.6c0.5,2,1.1,4.1,1.7,6.2c0.2,0.9,0.3,1.9,0.4,2.8c0.3,1.5-0.4,2.7-1.8,3
		c-1.6,0.4-2.6-0.3-3.3-2.1c-1.2-3.1-2-6.3-2-9.9c-3.4,0.5-6.6,0.9-10.1,1.4c1,1,2.1,1.7,2.6,2.6c0.7,1.3,1.1,2.9,1.6,4.3
		c-2.6,2.2-5.2,2.3-5.9,0.1c-0.3-1-0.6-2.1-1-3.1c-0.3-0.9,0.3-2.2,0.6-3.3c-3.1,0.8-5.9,1.7-8.9,2.2c-2.4,0.4-4.9,0.3-7.1,1
		c-3.2,1-6.5,1.2-9.7,1.7c-1.9,0.3-3.6,0.5-5,1.9c1.4,3.3,2.6,9.6,1.9,12.1c-0.2,0.8-1.1,1.6-1.8,1.9c-0.6,0.2-1.8-0.1-2.1-0.6
		c-0.8-1.1-1.9-2.5-1.8-3.7C157.3,86.4,156.1,83.4,155.8,80z"/>
	<path d="M289,31.5c1-1,1.7-1.7,2.6-2.6c2.5,0.6,5.4-0.9,8,1c0.5,0.4,1.6,0.1,2.4,0.1c2.1,0,4.1-0.1,6.1,0.9c1.6,0.8,3.9-0.7,5.6,1
		c0.4,0.4,1.6,0.1,2.4,0.1c1,0,2-0.2,3,0c1.3,0.3,2.3,1.5,3.9,0.5c1.6-0.9,0.5-2.5,1.3-3.5c0.4-0.4,0.4-1.1,0.6-1.7
		c1.1-3.4,2.9-3.9,6.3-2.7c4.2,1.5,7.6,4.2,11.3,6.5c5.5,3.3,10.7,7.2,16,10.8c3.4,2.3,3.5,2.3,5.4,6.2c-1.2,3.5-4.9,2.4-7.2,3.8
		c-4.1-0.5-7.7,1.7-11.6,2.1c-1.3,0.1-2.6,0.9-4.1,1c-1.4,0-2.7,0.6-4.1,0.9c-4.7,1.1-9.6,1.5-14,3.6c-1.4,0.6-3.2,1.1-3.9-0.2
		c-0.8-1.3-3.4-2.5-1.2-4.8c0.6-0.6,0-2.2,0.2-3.4c0.1-0.6,0.5-1.1,0.8-1.6c-4.7-1.6-9.9-2.3-14.9-3.3c-3.9-0.7-7.9-1.8-12-1.3
		c-2.1,0.3-2.9-0.7-2.9-2.9C289,38.6,289,35.1,289,31.5z M330.3,29.9c-0.4,0.8-1.1,1.6-1.2,2.5c-0.2,1.1-0.4,2.1-0.9,3.1
		c-1.5,3.4-2,4.3-4.9,3.4c-2.2-0.8-4.5-0.4-6.6-1c-2.4-0.6-5.1-0.1-7-1.1c-2.5-1.3-5.1,0.2-7.1-0.9c-2.6-1.5-5.1-0.5-7.7-0.8
		c-0.2,0-0.5,0.3-0.7,0.4c0,1.2,0,2.3,0,3.4c2.6,0.5,5.2,0.9,7.6,1.5c2.4,0.6,4.8,0.4,7,1c2.7,0.8,5.4,1.5,8.3,1.8
		c1.7,0.2,3.4,0.6,5.1,1c1.1,0.3,2,1,2,2.4c-0.1,2.1,0,4.3,0,6.6c10.2-2.2,20.1-4.3,30-6.5c0-0.3,0.1-0.9,0-1
		C346.2,40.4,338.3,35.2,330.3,29.9z"/>
	<path d="M256.6,363c-0.9-1.3-1.6-2.1-1.9-2.9c-0.4-0.8-0.8-2.1-0.5-2.6c2.6-3.9,3.7-8.5,5.9-12.5c0.4-0.8,1.2-1.5,1.8-2.2
		c0.9-1.1,2-1,3-0.3c1.1,0.7,1.7,2,1.1,3c-2.5,4.4-3.6,9.5-6,13.9C259.4,360.3,258.3,361.2,256.6,363z"/>
	<path d="M253,343.5c-0.1,0.2-0.4,1.3-1.1,2.1c-1.3,1.5-2.6,1.9-3.7,1.2c-1.6-1-1.3-2.6-1.2-4c0.1-0.9,0.7-1.7,1.2-2.5
		c0.7-1,1.7-1.7,2.9-1.3c1.1,0.4,2,1.1,1.9,2.5C253,341.8,253,342.2,253,343.5z"/>
	<path d="M189,85.6c-0.9,0.4-1.6,0.7-2.6,1.1c-2.9-1.8-3.6-4.8-3.4-8.3c0.1-1.4,0.8-2.1,2-2.4c1-0.3,2.1-0.1,2.5,1
		c0.6,1.4,1.7,2.6,1.6,4.3C188.9,82.8,189,84.2,189,85.6z"/>
	<path d="M123.8,97.1c-3-1.8-3.7-4.8-3.8-8c0-1.7,2.3-2.5,3.8-1.8c2.6,1.2,2.1,3.9,2.6,5.9C126.8,94.4,126,96.4,123.8,97.1z"/>
	<path d="M144.4,92c-0.7-1.5-1.4-2.7-1.9-4c-0.4-1-0.6-2.2-0.5-3.2c0.2-1.6,2.4-2.3,3.8-1.4c2.2,1.5,2.4,4,3.1,6.2
		c0.4,1.3-0.7,2.1-1.8,2.4C146.4,92.2,145.5,92,144.4,92z"/>
	<path d="M173.8,77.7c4.5,2.3,2.9,5.9,3.3,8.8c-1.9,1.2-3.6,1.2-5-0.1c-1.4-1.4-1.5-5.3-0.4-6.7C172.3,79.1,173,78.5,173.8,77.7z"/>
	<path d="M137,93.7c-5.3,1.5-5.6-2.7-7.1-5.9c1-0.9,2-1.9,3-2.8c0.2,0.1,0.6,0.1,0.8,0.3C136.4,87.5,137.1,90.4,137,93.7z"/>
	<path d="M238.2,67c1.7,0.2,3.6-0.6,4.3,1.1c0.9,2,1.9,4.1,1.5,6.3c-0.3,1.6-2.9,2.2-4,1c-0.9-1-1.7-2.4-1.9-3.7
		C237.8,70.2,238.1,68.6,238.2,67z"/>
	<path d="M219.4,69.1c1.4,0,3-0.8,4,0.8c0.9,1.4,2.2,2.8,1.6,4.7c-0.3,0.9-0.8,2-1.5,2.3c-0.7,0.3-1.9-0.1-2.6-0.6
		C218.7,74.7,218.2,72.1,219.4,69.1z"/>
	<path d="M230.2,77c-0.7-1.2-1.4-2.6-2.5-3.8c-0.9-1-0.8-2.2-0.6-3.2c0.2-0.8,1-1.8,1.7-2c0.7-0.2,1.9,0.3,2.5,0.8
		c1.9,1.8,1.9,4.2,1.5,6.6C232.1,76,231.3,76.4,230.2,77z"/>
	<path d="M74,97c5.1,0.2,5.1,0.2,4.8,7c-0.6,0-1.2,0.1-1.8,0c-2.3-0.2-2.9-0.8-3-2.8C73.9,99.9,74,98.7,74,97z"/>
	<path d="M99,94.3c0,1.2,0,2.2,0,3.2c0,1.6-0.9,2.3-2.3,2.5c-1.6,0.2-2.5-0.8-2.6-2.7c-0.1-1,0-2,0-2.9C96,93.6,97.1,93.6,99,94.3z"
		/>
</g>
</svg>
